# Blender v2.91.0 OBJ File: ''
# www.blender.org
mtllib va_tree_a0.mtl
o VA_TREE_A0_0000_st059_farview01_middle_13.001
v -0.137810 -0.003576 6.985754
v 1.067986 -3.362777 9.003692
v 2.287384 -0.827659 8.383944
v -1.357574 -2.539762 7.605831
v -0.137810 -0.003569 6.985752
v 1.068001 -3.362761 9.003716
v -0.267052 -0.922515 9.752391
v 1.197784 -2.444883 6.236880
v -0.137840 -0.003576 6.985748
v -1.771721 1.361055 10.489773
v -1.396965 -1.239898 9.309867
v -0.512810 2.598413 8.166270
v 0.484871 -0.309363 7.911324
v 1.751434 -1.790855 11.518434
v 2.282539 -2.444159 8.763651
v -0.046371 0.344125 10.667286
v 0.484833 -0.309379 7.911301
v 1.751411 -1.790848 11.518410
v -0.091087 -2.691359 9.495557
v 2.328094 0.591439 9.935066
v -0.936737 -0.086218 6.985774
v -4.115471 1.118569 9.278006
v -1.410507 0.302240 9.838888
v -3.642845 0.730463 6.424828
v -0.936760 -0.086218 6.985726
v -4.115532 1.118615 9.277892
v -3.167953 -1.423087 8.308622
v -1.884850 2.456506 7.955476
v 1.226418 0.067537 5.914298
v 4.923981 -1.571395 7.576583
v 2.187515 -0.803870 8.743257
v 3.964043 -0.700353 4.747265
v 1.226418 0.067560 5.914298
v 4.923965 -1.571386 7.576601
v 4.186333 1.013361 6.088860
v 1.964493 -2.518225 7.402665
v -1.255051 0.008502 4.395527
v -3.157516 1.126795 5.542099
v -3.929680 -1.099676 6.429546
v -2.028069 -2.217565 5.283496
v -1.818588 0.074595 5.373969
v -1.918266 0.534280 7.815964
v -4.404694 0.136857 7.787905
v -4.305168 -0.322660 5.346921
v -1.818611 0.074587 5.373997
v -3.366173 1.822283 6.231626
v -4.404716 0.136850 7.787935
v -2.857880 -1.610052 6.930700
v 0.028519 1.036571 3.531712
v 1.452156 2.780055 2.474276
v 2.671974 3.103693 4.653339
v 1.249001 1.360964 5.710436
v 0.028534 1.036594 3.531724
v 0.163200 3.298633 4.556404
v 2.671974 3.103732 4.653355
v 2.537384 0.842738 3.629148
v -0.284065 -0.192090 2.881452
v 0.281387 -1.215498 5.076340
v -1.292259 -3.120740 4.591870
v -1.857552 -2.097852 2.397870
v -0.284103 -0.192052 2.881452
v -2.103912 -0.739316 4.485617
v -1.292320 -3.120703 4.591866
v 0.526810 -2.573819 2.988350
v -0.511406 -0.711400 3.860187
v -0.190010 -1.005209 6.308657
v -1.975960 -2.780325 6.328719
v -2.297310 -2.486729 3.881274
v -0.511375 -0.711453 3.860195
v -2.461205 -0.495291 5.388579
v -1.975914 -2.780371 6.328727
v -0.026901 -2.996527 4.801032
v -0.274910 0.769214 3.490473
v -2.046028 2.046893 4.007523
v -0.719086 3.891597 3.989115
v 1.051346 2.614536 3.472279
v -0.274956 0.769290 3.490418
v -0.188179 2.106295 5.290908
v -0.719139 3.891681 3.989070
v -0.805878 2.555293 2.189379
v -0.766319 1.513057 3.987514
v -2.565155 2.317866 5.061352
v -1.439537 4.242090 5.502235
v 0.358612 3.437716 4.428866
v -0.766281 1.512996 3.987524
v -0.562675 2.233538 6.103161
v -1.439499 4.242029 5.502244
v -1.643089 3.521907 3.387380
v 0.719826 1.335230 5.089211
v 0.102875 1.890779 7.554297
v 2.302605 3.321466 7.781017
v 2.919487 2.766230 5.316910
v 0.236641 0.551439 6.034518
v 0.241707 -0.833350 8.521757
v 0.256378 1.685876 9.922558
v 0.251320 3.070208 7.436424
v 0.236671 0.551401 6.034510
v -1.709297 1.621927 7.815250
v 0.256424 1.685845 9.922549
v 2.201729 0.615754 8.142653
v 0.719841 1.335215 5.089208
v 0.582367 3.818987 5.849557
v 2.302589 3.321443 7.781031
v 2.440094 0.838679 7.021089
v 0.234962 0.263911 4.187232
v 0.014053 2.623232 5.523274
v -2.113777 1.613482 6.951519
v -1.893059 -0.744894 5.616107
v 0.235001 0.263896 4.187236
v 0.294510 0.277239 6.906885
v -2.113731 1.613459 6.951531
v -2.173332 1.600185 4.233029
v 0.644783 -0.791531 4.269406
v 0.601250 -3.247709 5.625419
v 3.111710 -3.923260 4.479182
v 3.155327 -1.468144 3.123688
v 0.644791 -0.791493 4.269406
v 2.439163 -1.761686 6.196167
v 3.111725 -3.923223 4.479194
v 1.318169 -2.953511 2.553207
v -0.212791 -1.212980 5.548426
v 0.237053 -1.457435 8.098686
v -0.637413 -3.940406 8.013590
v -1.087151 -3.696226 5.464327
v -0.455917 -0.367697 6.532213
v -1.676277 0.546029 8.936342
v -0.361961 -1.559585 10.401937
v 0.857964 -2.473021 7.998881
v -0.455894 -0.367681 6.532207
v 1.445045 -0.164832 8.641606
v -0.361931 -1.559577 10.401933
v -2.262032 -1.762343 8.293511
v -0.212814 -1.212965 5.548410
v 1.294205 -3.151899 6.406019
v -0.637421 -3.940375 8.013596
v -2.143944 -2.002287 7.156428
v -0.353294 -0.005247 4.701051
v 1.056671 -1.836698 6.135619
v 1.883949 0.149522 7.855416
v 0.474602 1.980311 6.421542
v -0.353294 -0.005239 4.701051
v -0.798676 -0.248716 7.373608
v 1.883942 0.149514 7.855428
v 2.329262 0.392908 5.184020
v 1.709183 -0.210057 3.851708
v 3.812088 0.165767 2.828127
v 4.888138 -1.044531 4.597431
v 2.786148 -1.420248 5.620658
v 1.709206 -0.210019 3.851729
v 3.449089 0.808802 5.095129
v 4.888161 -1.044477 4.597463
v 3.149055 -2.062924 3.354578
v 1.173615 0.144664 3.757627
v 1.574966 0.901400 5.966166
v 3.222481 -0.817770 6.254449
v 2.821442 -1.574307 4.046943
v 1.169083 0.105678 3.746647
v 3.173454 0.959017 4.676877
v 3.217873 -0.856726 6.243400
v 1.214348 -1.709806 5.313652
v -1.255051 0.008533 4.395506
v -1.573654 -0.311682 6.841029
v -3.929672 -1.099661 6.429525
v -3.611298 -0.779614 3.985007
v -0.094444 -0.068709 7.793414
v -0.695526 -0.473488 13.530699
v -2.183037 2.001817 10.672868
v 1.393593 -2.544960 10.652624
v -0.094467 -0.068725 7.793416
v -0.695541 -0.473518 13.530699
v -2.116035 -2.575118 10.356972
v 1.326530 2.033638 10.968642
v -0.685387 -0.162023 6.849880
v -0.775177 -0.105841 6.901690
v -0.761986 -0.153204 6.916628
v -0.535080 -0.158399 6.733057
v -0.490715 -0.096884 6.716773
v -0.490715 -0.096884 6.716773
v -0.775177 -0.105841 6.901690
v -0.412628 -0.158987 6.652126
v -0.339592 -0.135519 6.591456
v -0.342010 -0.083242 6.609856
v -0.155144 -0.001043 6.380332
v -0.390549 -0.035864 6.569891
v -0.146332 0.027613 6.441367
v -0.342010 -0.083242 6.609856
v -0.545624 -0.057310 6.696839
v -0.578110 -0.101538 6.673277
v -0.397675 -0.103254 6.547457
v -0.383553 -0.150862 6.576350
v -0.826485 -0.122640 6.888379
v -0.844307 -0.169958 6.923910
v -0.771271 -0.168844 6.841234
v -0.844307 -0.169958 6.923910
v -0.383553 -0.150862 6.576350
v -0.685387 -0.162023 6.849880
v -0.761986 -0.153204 6.916628
v -0.771271 -0.168844 6.841234
v -0.535080 -0.158399 6.733057
v -0.412628 -0.158987 6.652126
v -0.339592 -0.135519 6.591456
v -0.775177 -0.105841 6.901690
v -0.775177 -0.105841 6.901690
v -0.545624 -0.057310 6.696839
v -0.826485 -0.122640 6.888379
v -0.064560 0.214572 3.016234
v -0.137108 0.197459 3.185690
v 0.324112 0.272334 3.257503
v 0.271614 0.255946 3.396964
v 0.714485 0.344417 3.408924
v -0.134125 0.098338 3.231397
v 0.674591 0.326450 3.538149
v 0.275795 0.162807 3.436021
v -0.662712 -0.003178 3.656046
v -0.661728 0.092776 3.672749
v -0.143517 0.071254 3.315221
v -1.008041 -0.006459 3.985693
v -0.991745 0.089778 4.004999
v -0.613129 -0.017781 3.738344
v -0.923981 -0.017941 4.054124
v -0.591583 0.045047 3.776397
v -0.891647 0.045558 4.080499
v -1.275681 -0.003697 4.463374
v -1.300743 -0.052922 4.442939
v -1.365898 -0.044019 4.389893
v -1.353264 0.030574 4.404858
v -1.311127 0.032893 4.440313
v -1.936852 -0.095060 4.845262
v -0.937370 0.092769 4.050735
v -0.625374 0.093890 3.734482
v -1.275681 -0.003697 4.463374
v -0.891647 0.045558 4.080499
v -0.591583 0.045047 3.776397
v -0.065765 0.180446 3.438882
v -0.116402 0.213222 3.373260
v -0.041832 0.104686 3.461247
v -1.936852 -0.095060 4.845262
v -0.202156 0.002985 5.050992
v 0.258255 0.027880 5.314479
v -0.181480 0.053950 5.014954
v -0.181908 -0.061087 5.032074
v 0.286835 -0.013426 5.279023
v 0.512001 0.027445 5.571633
v 0.550674 -0.012487 5.546470
v 0.539345 0.081141 5.549338
v 0.276466 0.081011 5.282295
v 0.836769 0.069094 5.895423
v 0.857964 0.110720 5.878139
v 0.610443 0.071436 5.491460
v 0.318413 0.068659 5.212704
v 0.317581 -0.012487 5.226826
v 0.596657 -0.009954 5.507792
v 0.902382 0.040110 5.845933
v 0.913063 0.103197 5.833277
v 0.866737 0.038149 5.875916
v 1.395882 0.146357 6.218370
v 0.836769 0.069094 5.895423
v 0.550674 -0.012487 5.546470
v 0.286835 -0.013426 5.279023
v 0.512001 0.027445 5.571633
v -0.418159 -0.369970 4.813960
v -0.217308 0.028041 4.583036
v -0.139183 -0.056950 4.533443
v -0.400848 -0.347174 4.864167
v -0.171188 0.043604 4.635969
v -0.352684 -0.349798 4.897513
v -0.110527 0.021998 4.652960
v -0.495995 -0.549208 5.139354
v -0.548813 -0.555311 5.115650
v -0.573509 -0.590971 5.078096
v -0.647247 -0.828436 5.442896
v -0.688179 -0.833166 5.424536
v -0.905380 -1.306890 5.741761
v -0.707321 -0.860800 5.395414
v -0.519394 -0.647650 5.060659
v -0.356804 -0.416670 4.798802
v -0.322800 -0.393331 4.865482
v -0.470833 -0.600263 5.116611
v -0.352684 -0.349798 4.897513
v -0.495995 -0.549208 5.139354
v -0.647247 -0.828436 5.442896
v -0.627739 -0.868009 5.425271
v -0.665375 -0.904722 5.381905
v 0.931999 -0.967229 4.321397
v 0.319252 -0.437093 3.961424
v 0.392288 -0.354504 3.972925
v 0.281166 -0.431828 4.033336
v 0.058449 -0.192509 3.840752
v 0.870819 -1.028470 4.322021
v 0.841934 -1.024480 4.376588
v 0.844048 -0.986234 4.426312
v 0.283951 -0.381429 4.098890
v 0.075150 -0.135579 3.895303
v -0.136871 0.061252 3.666149
v -0.103905 0.132777 3.717427
v 1.236526 -1.498906 4.650742
v 1.257401 -1.501791 4.611326
v 1.238052 -1.471289 4.686668
v 1.732948 -1.915838 4.979215
v 1.275581 -1.445089 4.673006
v 1.238052 -1.471289 4.686668
v 1.732948 -1.915838 4.979215
v 0.844048 -0.986234 4.426312
v 0.075150 -0.135579 3.895303
v 0.283951 -0.381429 4.098890
v 0.352409 -0.333638 4.073961
v 0.139580 -0.092198 3.869139
v -0.103905 0.132777 3.717427
v -0.037384 0.133472 3.020876
v 0.026070 0.187305 2.965449
v -0.048775 0.485530 3.296901
v -0.013512 0.361400 3.042813
v 0.023758 0.244731 2.867150
v -0.063622 0.519511 3.221881
v -0.090851 0.346523 2.953373
v -0.062653 0.228503 2.772747
v -0.149071 0.212276 2.844284
v -0.168182 0.331638 3.029882
v -0.193138 0.488017 3.216580
v -0.169182 0.439227 3.325296
v -0.120163 0.129176 2.989765
v -0.121994 0.804141 3.525563
v -0.152336 0.827747 3.453651
v -0.091698 0.444576 3.351450
v -0.290352 1.596004 3.938416
v -0.149605 0.761890 3.591119
v -0.267326 1.578105 3.992970
v -0.432457 2.218867 4.227716
v -0.415817 2.205935 4.267135
v -0.430954 2.182773 4.303051
v -0.637260 2.815219 4.595606
v -0.075447 -0.143101 0.409547
v -0.124130 -0.098416 1.538577
v -0.259796 -0.060673 0.409547
v 0.067337 0.176190 0.409547
v -0.018791 0.137111 1.538577
v 0.088112 -0.024677 0.409547
v -0.122063 0.307568 0.409547
v -0.154778 0.197925 1.538577
v -0.123222 0.318753 0.197987
v -0.280571 0.140194 0.409547
v -0.275436 0.110561 1.538577
v -0.239655 0.243976 2.544187
v -0.109245 0.338405 2.544187
v -0.192467 0.177409 3.167717
v -0.118515 0.033800 6.807127
v -0.114281 -0.007238 6.807127
v -0.080856 0.016955 6.807127
v -0.085106 0.057993 6.807127
v -0.047432 0.041147 6.807127
v -0.043198 0.000116 6.807127
v -0.114281 -0.007238 6.807127
v -0.076607 -0.024084 6.807127
v -0.080856 0.016955 6.807127
v -0.043198 0.000116 6.807127
v -0.118515 0.033800 6.807127
v -0.085106 0.057993 6.807127
v -0.169579 0.133326 6.499687
v -0.109894 0.106646 6.499687
v -0.047432 0.041147 6.807127
v -0.043198 0.000116 6.807127
v -0.076607 -0.024084 6.807127
v -0.103172 0.041620 6.499687
v -0.156120 0.003290 6.499687
v -0.114281 -0.007238 6.807127
v 2.507179 0.499973 3.979100
v 2.520828 0.515987 3.928144
v 3.295937 0.762584 4.314281
v 2.482536 0.523326 4.023531
v 1.704323 0.333125 3.705075
v 0.319191 0.102473 3.369993
v -0.086189 0.011737 3.171069
v 0.355705 0.111705 3.273885
v 0.725540 0.183475 3.495004
v 0.275795 0.162807 3.436021
v 0.680557 0.226085 3.576091
v -0.070976 0.070330 4.700917
v -0.098801 0.217372 4.042557
v -0.166061 0.112848 4.700917
v -0.199188 0.144679 4.042557
v 0.014351 0.166774 4.042557
v -0.196381 0.215221 3.258677
v -0.062592 0.312083 3.258677
v 0.078651 0.243671 3.258677
v 0.100960 0.028026 3.258677
v -0.058678 0.274280 3.167717
v 0.105629 0.246463 3.167717
v 0.145622 0.026317 3.167717
v 0.054298 0.112521 2.544187
v -0.028595 -0.016507 3.167717
v -0.031174 0.008357 3.258677
v -0.177071 0.028606 3.167717
v -0.076103 0.018100 2.544187
v -0.223091 0.083827 2.544187
v -0.192467 0.177409 3.167717
v -0.180992 0.066417 3.258677
v -0.761986 -0.153204 6.916628
v -0.844307 -0.169958 6.923910
v -0.867355 -0.127317 6.983407
v -0.775177 -0.105841 6.901690
v -1.118027 -0.117559 7.110649
v -0.867355 -0.127317 6.983407
v -0.844307 -0.169958 6.923910
v -0.867355 -0.127317 6.983407
v -1.118027 -0.117559 7.110649
v -0.867355 -0.127317 6.983407
v -0.761986 -0.153204 6.916628
v -0.775177 -0.105841 6.901690
v -0.177193 0.089625 6.382560
v -0.177193 0.017275 6.325372
v -0.155144 -0.001043 6.380332
v -1.118027 -0.117559 7.110649
v -0.775177 -0.105841 6.901690
v -0.844307 -0.169958 6.923910
v 1.670204 0.365443 3.766588
v 0.750458 0.212688 3.402041
v 1.723221 0.355281 3.634548
v 1.700470 0.459354 3.627573
v 1.665665 0.441585 3.737808
v 2.504402 0.591167 3.923107
v 2.479256 0.578334 4.002740
v 1.670204 0.365443 3.766588
v 0.680557 0.226085 3.576091
v -0.038498 0.021991 3.057539
v -0.134125 0.098338 3.231397
v 2.482536 0.523326 4.023531
v 3.295937 0.762584 4.314281
v -0.066277 0.044421 3.418626
v -0.041832 0.104686 3.461247
v 1.395882 0.146357 6.218370
v -0.181908 -0.061087 5.032074
v -0.139084 -0.088804 4.976586
v -0.116158 0.031252 4.927508
v -0.905380 -1.306890 5.741761
v -0.083763 -0.022093 4.617259
v -0.110527 0.021998 4.652960
v 1.301590 -1.457556 4.610878
v 0.895973 -0.949986 4.407403
v 0.184723 -0.122487 3.760432
v 0.088295 -0.214520 3.765731
v -0.111015 0.019389 3.490894
v 0.022415 0.133922 3.468020
v -0.034370 0.177890 3.686318
v -0.288292 1.546039 4.042698
v -0.492844 2.202655 4.227264
v -0.476547 2.178859 4.289395
v -0.351387 1.540614 4.023791
v -0.373947 1.573558 3.937792
v -0.256889 0.792743 3.465153
v -0.232780 0.754718 3.566192
v -0.149605 0.761890 3.591119
v -0.288292 1.546039 4.042698
v -0.430954 2.182773 4.303051
v -0.637260 2.815219 4.595606
v -0.091698 0.444576 3.351450
v -0.037384 0.133472 3.020876
v -0.329720 0.146206 0.197987
v -0.131645 0.400181 -0.013573
v -0.444649 0.173565 -0.013573
v 0.114212 0.192135 0.197987
v 0.221100 0.242436 -0.013573
v 0.140724 -0.064174 0.197987
v 0.260872 -0.141941 -0.013573
v -0.061165 -0.281170 -0.013573
v -0.071945 -0.177013 0.197987
v -0.303207 -0.110096 0.197987
v -0.404877 -0.210811 -0.013573
v -0.444649 0.173565 -0.013573
v -0.329720 0.146206 0.197987
v -0.003471 -0.011052 1.538577
v -0.260101 -0.037602 1.538577
v -0.275436 0.110561 1.538577
v -0.280571 0.140194 0.409547
v -0.239655 0.243976 2.544187
v -0.196381 0.215221 3.258677
v -0.199188 0.144679 4.042557
v -0.186447 0.021388 4.042557
v -0.250420 0.051767 4.700917
v -0.073288 -0.029210 4.042557
v -0.144623 -0.094358 4.700917
v -0.239708 -0.051832 4.700917
v -0.237030 0.045771 5.754027
v -0.227814 -0.043226 5.754027
v -0.146141 -0.079756 5.754027
v -0.060265 -0.033270 4.700917
v 0.027107 0.043483 4.042557
v -0.073662 -0.027281 5.754027
v -0.215790 0.029970 6.499687
v -0.222519 0.094996 6.499687
v -0.118515 0.033800 6.807127
v -0.082870 0.061724 5.754027
v -0.164543 0.098253 5.754027
v -0.222519 0.094996 6.499687
v -0.237030 0.045771 5.754027
v -0.250420 0.051767 4.700917
v 0.037735 0.272670 2.544187
v -0.281342 0.775447 3.516110
v 1.513969 0.648279 5.407195
v 2.638153 2.856532 4.486491
v 0.843658 2.983760 2.596155
v -0.194298 0.318652 3.284573
v 1.595955 2.950954 2.864385
v -0.431488 4.632045 4.770913
v -2.221092 2.000910 5.191009
v -0.554672 -0.202810 6.737518
v -3.339241 0.421419 6.171898
v -3.788475 0.996171 9.025897
v -1.005089 0.372224 9.591414
v 0.339424 -0.360013 4.005926
v 2.140884 -0.624243 6.859080
v 3.503738 -3.557043 5.724770
v 1.703102 -3.293065 2.872776
v -0.051910 0.170093 2.528971
v -1.926620 -2.723301 1.648977
v -2.322922 -3.525595 5.138993
v -0.449005 -0.633436 6.018798
v -0.158195 0.045160 6.496724
v -2.559235 0.741754 9.342121
v 0.076591 -0.456993 11.856996
v 2.476738 -1.153350 9.012945
v -0.280144 0.408839 4.218895
v -0.943512 1.701570 8.428750
v -0.527084 -2.572791 9.804341
v 0.136024 -3.865179 5.596302
v 0.583733 0.403072 3.253394
v 0.691544 0.687121 6.798609
v 3.840401 -1.063223 6.841148
v 3.732803 -1.347234 3.297444
v -0.827682 0.038478 4.040912
v -3.982246 -1.485112 3.418001
v -5.036552 -0.665846 6.764362
v -1.883347 0.857149 7.387183
v 0.005531 -0.036115 3.670917
v -0.946579 -1.319464 7.827909
v 1.096390 2.367143 9.431357
v 2.048195 3.650110 5.276171
v 0.464363 0.193865 5.563730
v 1.157997 -2.505874 8.228724
v 4.938446 -1.527892 8.232515
v 4.245293 1.170809 5.568601
vt 0.499512 0.498535
vt 0.003206 0.000000
vt 0.003206 0.498535
vt 0.500000 0.000000
vt 0.499512 0.498535
vt 0.003206 0.000000
vt 0.003206 0.498535
vt 0.500000 0.000000
vt 0.499512 0.498535
vt 0.003206 0.000000
vt 0.003206 0.498535
vt 0.500000 0.000000
vt 0.499512 0.498535
vt 0.003206 0.000000
vt 0.003206 0.498535
vt 0.500000 0.000000
vt 0.499512 0.498535
vt 0.003206 0.000000
vt 0.003206 0.498535
vt 0.500000 0.000000
vt 0.499512 0.498535
vt 0.003206 0.000000
vt 0.003206 0.498535
vt 0.500000 0.000000
vt 0.499512 0.498535
vt 0.003206 0.000000
vt 0.003206 0.498535
vt 0.500000 0.000000
vt 0.499512 0.498535
vt 0.003206 0.000000
vt 0.003206 0.498535
vt 0.500000 0.000000
vt 0.499512 0.498535
vt 0.003206 0.000000
vt 0.003206 0.498535
vt 0.500000 0.000000
vt 0.499512 1.000100
vt 0.500000 0.500977
vt 0.003206 0.501465
vt 0.003206 1.000100
vt 0.499512 1.000100
vt 0.500000 0.500977
vt 0.003206 0.501465
vt 0.003206 1.000100
vt 0.499512 1.000100
vt 0.500000 0.500977
vt 0.003206 0.501465
vt 0.003206 1.000100
vt 0.499512 1.000100
vt 0.500000 0.500977
vt 0.003206 0.501465
vt 0.003206 1.000100
vt 0.499512 1.000100
vt 0.500000 0.500977
vt 0.003206 0.501465
vt 0.003206 1.000100
vt 0.499512 1.000100
vt 0.500000 0.500977
vt 0.003206 0.501465
vt 0.003206 1.000100
vt 0.499512 1.000100
vt 0.500000 0.500977
vt 0.003206 0.501465
vt 0.003206 1.000100
vt 0.499512 1.000100
vt 0.500000 0.500977
vt 0.003206 0.501465
vt 0.003206 1.000100
vt 0.499512 1.000100
vt 0.500000 0.500977
vt 0.003206 0.501465
vt 0.003206 1.000100
vt 0.499512 1.000100
vt 0.500000 0.500977
vt 0.003206 0.501465
vt 0.003206 1.000100
vt 0.499512 1.000100
vt 0.500000 0.500977
vt 0.003206 0.501465
vt 0.003206 1.000100
vt 0.499512 1.000100
vt 0.500000 0.500977
vt 0.003206 0.501465
vt 0.003206 1.000100
vt 0.499512 1.000100
vt 0.500000 0.500977
vt 0.003206 0.501465
vt 0.003206 1.000100
vt 0.499512 1.000100
vt 0.500000 0.500977
vt 0.003206 0.501465
vt 0.003206 1.000100
vt 0.499512 1.000100
vt 0.500000 0.500977
vt 0.003206 0.501465
vt 0.003206 1.000100
vt 0.499512 1.000100
vt 0.500000 0.500977
vt 0.003206 0.501465
vt 0.003206 1.000100
vt 0.499512 1.000100
vt 0.500000 0.500977
vt 0.003206 0.501465
vt 0.003206 1.000100
vt 0.499512 1.000100
vt 0.500000 0.500977
vt 0.003206 0.501465
vt 0.003206 1.000100
vt 0.499512 1.000100
vt 0.500000 0.500977
vt 0.003206 0.501465
vt 0.003206 1.000100
vt 0.499512 0.498535
vt 0.500000 0.000000
vt 0.003206 0.000000
vt 0.003206 0.498535
vt 0.499512 0.498535
vt 0.500000 0.000000
vt 0.003206 0.000000
vt 0.003206 0.498535
vt 0.499512 1.000100
vt 0.500000 0.500977
vt 0.003206 0.501465
vt 0.003206 1.000100
vt 0.499512 1.000100
vt 0.500000 0.500977
vt 0.003206 0.501465
vt 0.003206 1.000100
vt 0.499512 1.000100
vt 0.500000 0.500977
vt 0.003206 0.501465
vt 0.003206 1.000100
vt 0.499512 1.000100
vt 0.500000 0.500977
vt 0.003206 0.501465
vt 0.003206 1.000100
vt 0.499512 1.000100
vt 0.500000 0.500977
vt 0.003206 0.501465
vt 0.003206 1.000100
vt 0.499512 1.000100
vt 0.500000 0.500977
vt 0.003206 0.501465
vt 0.003206 1.000100
vt 0.499512 1.000100
vt 0.500000 0.500977
vt 0.003206 0.501465
vt 0.003206 1.000100
vt 0.499512 1.000100
vt 0.500000 0.500977
vt 0.003206 0.501465
vt 0.003206 1.000100
vt 0.999023 1.000100
vt 0.999512 0.500977
vt 0.502441 0.501465
vt 0.502441 1.000100
vt 0.499512 1.000100
vt 0.500000 0.500977
vt 0.003206 0.501465
vt 0.003206 1.000100
vt 0.499512 1.000100
vt 0.500000 0.500977
vt 0.003206 0.501465
vt 0.003206 1.000100
vt 0.499512 0.498535
vt 0.003206 0.000000
vt 0.003206 0.498535
vt 0.500000 0.000000
vt 0.499512 0.498535
vt 0.003206 0.000000
vt 0.003206 0.498535
vt 0.500000 0.000000
vt 0.007996 4.650391
vt 0.605957 4.933594
vt 0.293213 5.054688
vt 0.007996 4.083984
vt 0.435791 3.792969
vt 0.435791 3.792969
vt 0.634277 4.929688
vt 0.007996 3.648438
vt 0.007996 3.212891
vt 0.441162 3.212891
vt 0.000000 2.356445
vt 0.914551 3.404297
vt 0.440918 2.348633
vt 0.441162 3.212891
vt 0.906250 4.083984
vt 1.378906 4.142578
vt 1.375000 3.525391
vt 1.722656 3.642578
vt 0.899414 4.876953
vt 1.088867 5.046875
vt 1.662109 4.875000
vt 1.425781 5.164062
vt 1.722656 3.642578
vt 1.980469 4.650391
vt 1.762695 5.039062
vt 1.662109 4.875000
vt 1.980469 4.083984
vt 1.980469 3.648438
vt 1.980469 3.212891
vt 0.732422 4.949219
vt 0.730957 4.947266
vt 0.906250 4.083984
vt 0.899414 4.876953
vt 0.570312 0.726318
vt 0.773438 0.726318
vt 0.570312 0.978149
vt 0.773438 0.982910
vt 0.570312 1.229858
vt 0.988770 0.726318
vt 0.773438 1.239380
vt 0.988770 0.982635
vt 0.597656 1.132202
vt 0.369141 1.132935
vt 0.635742 0.772583
vt 0.559082 1.408936
vt 0.363281 1.409424
vt 0.830078 1.139038
vt 0.823730 1.414062
vt 1.009766 1.138672
vt 1.011719 1.413818
vt 0.999512 1.694824
vt 0.835938 1.695312
vt 0.570312 1.691406
vt 0.352051 1.691895
vt 0.126465 1.694336
vt 0.478027 2.200195
vt 0.144897 1.413086
vt 0.181152 1.137817
vt 0.000945 1.694824
vt 0.000945 1.413818
vt 0.000945 1.138672
vt 0.175659 0.772583
vt 0.358887 0.772583
vt 0.000945 0.772583
vt 0.478027 2.200195
vt 1.560547 0.970291
vt 1.592773 1.226685
vt 1.472656 0.970291
vt 1.666016 0.970291
vt 1.699219 1.226074
vt 1.627930 1.419434
vt 1.712891 1.418945
vt 1.517578 1.419434
vt 1.486328 1.226929
vt 1.621094 1.616211
vt 1.524414 1.616211
vt 1.308594 1.416016
vt 1.348633 1.222168
vt 1.214844 1.222656
vt 1.193359 1.416260
vt 1.186523 1.613770
vt 1.315430 1.613770
vt 1.106445 1.615723
vt 1.313477 1.970215
vt 1.025391 1.616211
vt 1.117188 1.418945
vt 1.103516 1.226074
vt 1.032227 1.419434
vt 0.386719 0.626953
vt 0.386719 0.002930
vt 0.614746 0.002930
vt 0.185913 0.635254
vt 0.185913 0.002930
vt -0.005447 0.636963
vt -0.005447 0.002930
vt -0.005447 1.113098
vt 0.185913 1.111938
vt 0.386719 1.105652
vt -0.005447 1.600098
vt 0.185913 1.599121
vt 0.548828 2.473633
vt 0.386719 1.594238
vt 0.614746 1.104797
vt 0.614746 0.625732
vt 0.791504 0.637695
vt 0.791504 1.113586
vt 1.004883 0.636963
vt 1.004883 1.113098
vt 1.004883 1.600098
vt 0.791504 1.600586
vt 0.614746 1.593750
vt 0.589844 1.219238
vt 0.387939 0.921509
vt 0.589844 0.920898
vt 0.234375 0.925720
vt 0.234375 0.767334
vt 0.387939 1.219727
vt 0.234375 1.222900
vt 0.013077 1.223389
vt 0.013077 0.926514
vt 0.013077 0.767700
vt 0.234375 0.608887
vt 0.013077 0.608887
vt 0.234375 1.508301
vt 0.387939 1.505859
vt 0.013077 1.508789
vt 0.536133 1.847168
vt 0.792969 1.508789
vt 1.007812 1.508789
vt 0.536133 1.847168
vt 1.007812 1.223389
vt 1.007812 0.767700
vt 1.007812 0.926514
vt 0.792969 0.926819
vt 0.792969 0.767822
vt 1.007812 0.608887
vt 0.009087 0.598877
vt 0.230469 0.598877
vt 0.230469 0.891052
vt 0.384033 0.722168
vt 0.384033 0.598877
vt 0.384033 0.887207
vt 0.484863 0.723389
vt 0.484863 0.598877
vt 0.585938 0.598877
vt 0.585938 0.724365
vt 0.585938 0.886658
vt 0.789062 0.892090
vt 0.789062 0.598877
vt 0.230469 1.183105
vt 0.384033 1.175415
vt 0.009087 0.891785
vt 0.384033 1.725098
vt 0.009087 1.184570
vt 0.230469 1.730957
vt 0.384033 2.252930
vt 0.230469 2.257812
vt 0.009087 2.258789
vt 0.532227 2.882812
vt 0.669434 -0.160156
vt 0.669434 0.287109
vt 0.336670 -0.160156
vt 1.334961 -0.160156
vt 1.334961 0.287109
vt 1.001953 -0.160156
vt 1.666992 -0.160156
vt 1.666992 0.287109
vt 1.666992 -0.244141
vt 1.976562 -0.160156
vt 1.994141 0.287109
vt 2.000000 0.685303
vt 1.666992 0.685303
vt 2.000000 0.939117
vt 0.897949 -0.372070
vt 0.897949 -0.113281
vt 0.663574 -0.242188
vt 0.673828 -0.501953
vt 0.449707 -0.372070
vt 0.449707 -0.113281
vt 0.897949 -0.113281
vt 0.673828 -0.419922
vt 0.663574 -0.242188
vt 0.449707 -0.113281
vt 2.000000 2.374023
vt 1.666992 2.374023
vt 1.675781 2.218750
vt 1.329102 2.218750
vt 1.334961 2.374023
vt 1.001953 2.374023
vt 0.669434 2.374023
vt 1.006836 2.218750
vt 0.666504 2.218750
vt 0.336670 2.374023
vt 0.214844 2.177734
vt 0.368408 2.173828
vt 0.516602 2.724609
vt -0.006516 2.178711
vt 0.214844 1.717285
vt 0.214844 0.982025
vt 0.214844 0.726318
vt 0.368408 0.978622
vt 0.214844 1.237671
vt -0.006516 0.982635
vt -0.006516 1.238892
vt 1.334961 1.539551
vt 1.666992 1.278809
vt 1.666992 1.539551
vt 2.000000 1.279053
vt 1.334961 1.278809
vt 2.000000 0.976227
vt 1.666992 0.976151
vt 1.334961 0.976151
vt 1.001953 0.976151
vt 1.666992 0.939117
vt 1.334961 0.939117
vt 1.001953 0.939117
vt 1.001953 0.685303
vt 0.669434 0.939117
vt 0.669434 0.976151
vt 0.336670 0.939117
vt 0.669434 0.685303
vt 0.336670 0.685303
vt 0.003990 0.939117
vt 0.336670 0.976151
vt 1.811523 4.974609
vt 1.521484 5.136719
vt 1.597656 5.433594
vt 0.666016 5.070312
vt 0.942383 6.285156
vt 0.530273 5.500000
vt 1.449219 5.226562
vt 1.615234 5.437500
vt 1.431641 6.390625
vt 0.401855 5.578125
vt 0.320068 5.035156
vt 0.705566 4.921875
vt 0.911621 2.348633
vt 1.384766 2.348633
vt 1.936523 2.360352
vt 1.186523 6.335938
vt 0.662109 5.046875
vt 1.093750 5.042969
vt -0.006516 1.718262
vt 0.368408 1.230835
vt 0.368408 1.711914
vt 0.570312 1.711426
vt 0.773438 1.718262
vt 0.570312 2.173828
vt 0.773438 2.178711
vt 0.988770 1.718262
vt 0.988770 1.238892
vt 0.368408 0.726318
vt -0.006516 0.726318
vt 0.988770 2.178711
vt 0.516602 2.724609
vt 0.859375 0.772583
vt 1.007812 0.772583
vt 1.909180 1.970215
vt 1.069336 0.970291
vt 1.177734 0.970291
vt 1.340820 0.970291
vt 0.548828 2.473633
vt 0.791504 0.002930
vt 1.004883 0.002930
vt 0.589844 1.505371
vt 0.792969 1.223633
vt 0.589844 0.764893
vt 0.387939 0.765259
vt 0.387939 0.608887
vt 0.589844 0.608887
vt 0.792969 0.608887
vt 0.009087 1.731934
vt 0.585938 2.251953
vt 0.789062 2.258789
vt 0.789062 1.732422
vt 0.585938 1.724609
vt 0.585938 1.174316
vt 0.789062 1.185181
vt 1.003906 1.184570
vt 1.003906 1.731934
vt 1.003906 2.258789
vt 0.532227 2.882812
vt 1.003906 0.891785
vt 1.003906 0.598877
vt 1.988281 -0.244141
vt 1.666992 -0.328125
vt 2.000000 -0.328125
vt 1.334961 -0.244141
vt 1.334961 -0.328125
vt 1.001953 -0.244141
vt 1.001953 -0.328125
vt 0.669434 -0.328125
vt 0.669434 -0.244141
vt 0.336670 -0.244141
vt 0.336670 -0.328125
vt 0.003983 -0.328125
vt 0.015793 -0.244141
vt 1.001953 0.287109
vt 0.336670 0.287109
vt 0.010162 0.287109
vt 0.027603 -0.160156
vt 0.003983 0.685303
vt 0.003994 0.976227
vt 0.003994 1.279053
vt 0.336670 1.278809
vt 0.003998 1.539551
vt 0.669434 1.278809
vt 0.669434 1.539551
vt 0.336670 1.539551
vt 0.003990 1.957031
vt 0.336670 1.957031
vt 0.669434 1.957031
vt 1.001953 1.539551
vt 1.001953 1.278809
vt 1.001953 1.957031
vt 0.342041 2.218750
vt 0.005089 2.218750
vt 0.003983 2.374023
vt 1.334961 1.957031
vt 1.666992 1.957031
vt 1.996094 2.218750
vt 2.000000 1.957031
vt 2.000000 1.539551
vt 1.334961 0.685303
vt 0.499512 1.001450
vt 0.500000 0.500977
vt 0.001124 0.501465
vt -0.000957 1.000100
vt 0.499512 1.001450
vt 0.500000 0.500977
vt 0.001124 0.501465
vt -0.000957 1.000100
vt 0.499512 1.001450
vt 0.500000 0.500977
vt 0.001124 0.501465
vt -0.000957 1.000100
vt 0.499512 1.001450
vt 0.500000 0.500977
vt 0.001124 0.501465
vt -0.000957 1.000100
vt 0.499512 1.001450
vt 0.500000 0.500977
vt 0.001124 0.501465
vt -0.000957 1.000100
vt 0.499512 1.001450
vt 0.500000 0.500977
vt 0.001124 0.501465
vt -0.000957 1.000100
vt 0.499512 1.001450
vt 0.500000 0.500977
vt 0.001124 0.501465
vt -0.000957 1.000100
vt 0.499512 1.001450
vt 0.500000 0.500977
vt 0.001124 0.501465
vt -0.000957 1.000100
vt 0.499512 1.001450
vt 0.500000 0.500977
vt 0.001124 0.501465
vt -0.000957 1.000100
vt 0.499512 1.001450
vt 0.500000 0.500977
vt 0.001124 0.501465
vt -0.000957 1.000100
vt 0.499512 1.001450
vt 0.500000 0.500977
vt 0.001124 0.501465
vt -0.000957 1.000100
vn 0.2941 -0.8193 0.4922
vn -0.3985 0.3328 0.8547
vn -0.3985 0.3329 0.8546
vn -0.3985 0.3328 0.8546
vn 0.3090 -0.3614 0.8797
vn 0.3090 -0.3615 0.8797
vn 0.3089 -0.3614 0.8797
vn 0.3089 -0.3615 0.8797
vn -0.7754 0.2939 0.5590
vn -0.7754 0.2939 0.5589
vn -0.7753 0.2939 0.5590
vn -0.7754 0.2938 0.5589
vn 0.8455 -0.3749 0.3803
vn 0.8455 -0.3749 0.3802
vn 0.8455 -0.3748 0.3803
vn -0.7560 -0.3131 0.5749
vn -0.7560 -0.3130 0.5749
vn -0.7308 0.0176 0.6824
vn -0.7307 0.0176 0.6824
vn 0.7472 0.5841 0.3169
vn 0.7472 0.5841 0.3170
vn 0.7473 0.5841 0.3169
vn -0.2849 -0.8277 0.4835
vn -0.2849 -0.8277 0.4834
vn -0.4140 -0.5848 0.6976
vn -0.4141 -0.5847 0.6976
vn -0.1391 0.9779 0.1562
vn -0.2109 0.8547 0.4744
vn -0.2108 0.8547 0.4744
vn -0.2109 0.8546 0.4745
vn 0.4276 0.5368 0.7273
vn 0.0049 0.2802 0.9599
vn 0.0049 0.2801 0.9599
vn 0.0049 0.2801 0.9600
vn 0.4277 0.5368 0.7273
vn -0.6068 0.3488 0.7143
vn -0.6068 0.3488 0.7142
vn -0.6067 0.3488 0.7143
vn 0.6179 -0.7845 0.0526
vn 0.6179 -0.7845 0.0525
vn -0.1147 -0.7370 0.6661
vn -0.1147 -0.7369 0.6662
vn 0.0232 -0.2943 0.9554
vn 0.0231 -0.2943 0.9554
vn -0.1148 -0.7370 0.6661
vn 0.5778 0.0400 0.8152
vn 0.5778 0.0399 0.8152
vn 0.5779 0.0400 0.8152
vn 0.9432 -0.2477 0.2213
vn 0.9433 -0.2476 0.2212
vn 0.9433 -0.2476 0.2213
vn 0.6080 -0.2854 0.7408
vn 0.6080 -0.2855 0.7408
vn 0.6080 -0.2854 0.7409
vn -0.7560 -0.3131 0.5748
vn -0.7561 -0.3131 0.5748
vn -0.1040 -0.0700 0.9921
vn -0.1039 -0.0700 0.9921
vn -0.1039 -0.0699 0.9921
vn 0.4007 -0.7254 0.5597
vn 0.0784 0.9580 0.2758
vn 0.5364 -0.4801 0.6941
vn 0.4667 -0.6422 0.6080
vn 0.4924 0.4494 0.7454
vn 0.4009 -0.7253 0.5596
vn 0.4923 0.4493 0.7455
vn 0.0782 0.9580 0.2757
vn 0.4738 -0.6798 0.5598
vn 0.7049 -0.6208 0.3432
vn 0.5529 0.3360 0.7625
vn 0.4924 0.4495 0.7453
vn 0.7048 -0.6208 0.3431
vn 0.3604 -0.9202 -0.1527
vn -0.4296 0.8996 -0.0787
vn 0.5642 0.2112 0.7982
vn 0.3605 -0.9202 -0.1527
vn 0.5641 0.2114 0.7982
vn -0.0650 0.9933 0.0958
vn -0.5989 -0.0511 -0.7992
vn -0.5770 -0.1611 -0.8007
vn -0.1789 -0.7938 -0.5813
vn -0.5924 0.3892 -0.7054
vn -0.4621 -0.7652 -0.4482
vn -0.4760 -0.7470 -0.4641
vn -0.4624 -0.7651 -0.4481
vn -0.5989 -0.0509 -0.7992
vn -0.1789 -0.7937 -0.5814
vn 0.4008 -0.7253 0.5598
vn 0.5364 -0.4799 0.6943
vn -0.4757 -0.7473 -0.4639
vn 0.4008 -0.7252 0.5599
vn 0.4666 -0.6423 0.6081
vn 0.4737 -0.6800 0.5596
vn 0.7049 -0.6209 0.3430
vn 0.0782 0.9581 0.2754
vn 0.0784 0.9579 0.2761
vn -0.0650 0.9932 0.0963
vn -0.5925 0.3896 -0.7051
vn 0.2963 0.6790 -0.6717
vn -0.3184 0.8718 0.3721
vn 0.1995 0.7316 -0.6519
vn -0.3277 0.8312 0.4491
vn 0.0583 0.7981 -0.5997
vn -0.4020 -0.2012 0.8933
vn -0.2410 0.8175 0.5231
vn -0.3343 -0.2547 0.9074
vn -0.4789 -0.5168 -0.7097
vn -0.4999 0.6734 -0.5446
vn -0.4267 -0.4584 -0.7796
vn -0.5741 -0.5814 -0.5765
vn -0.5550 0.6830 -0.4749
vn 0.1918 -0.9684 0.1597
vn 0.2551 -0.9455 0.2026
vn 0.5812 0.0095 0.8137
vn 0.7000 0.1236 0.7034
vn 0.6344 0.0975 0.7668
vn 0.2606 -0.9396 0.2220
vn -0.5211 -0.6173 -0.5894
vn -0.5573 0.7068 -0.4357
vn 0.1492 0.9200 0.3624
vn -0.6340 -0.7199 -0.2824
vn 0.2040 0.9394 0.2755
vn 0.1814 0.8923 0.4134
vn 0.6344 0.0973 0.7668
vn 0.5812 0.0094 0.8137
vn 0.1700 0.8123 0.5579
vn -0.4287 0.7802 -0.4557
vn 0.4877 -0.0250 0.8727
vn -0.4867 0.0440 0.8725
vn -0.5799 -0.0193 0.8145
vn -0.1817 0.9603 0.2116
vn -0.2056 -0.8136 0.5439
vn -0.1992 -0.8960 0.3968
vn -0.7000 -0.1236 0.7034
vn -0.2040 -0.9394 0.2756
vn -0.2551 0.9454 0.2026
vn -0.1712 0.9691 0.1777
vn -0.6344 -0.0975 0.7668
vn -0.2605 0.9396 0.2221
vn 0.5741 0.5814 -0.5765
vn 0.4945 0.5065 -0.7063
vn 0.4819 -0.6796 -0.5531
vn 0.5550 -0.6830 -0.4748
vn 0.5573 -0.7068 -0.4358
vn 0.5211 0.6173 -0.5894
vn -0.1492 -0.9200 0.3623
vn 0.6340 0.7200 -0.2820
vn -0.6345 -0.0974 0.7668
vn -0.2039 -0.9394 0.2756
vn -0.1993 -0.8960 0.3969
vn -0.6999 -0.1236 0.7034
vn -0.8376 0.0351 -0.5451
vn -0.8683 0.1580 -0.4702
vn 0.1118 -0.6188 -0.7775
vn -0.5939 0.6868 0.4191
vn -0.5228 0.6395 0.5636
vn 0.3393 0.4558 0.8228
vn 0.3346 0.3420 0.8781
vn 0.3270 0.6169 0.7159
vn -0.6271 0.7195 0.2984
vn -0.8836 -0.0233 -0.4677
vn 0.3093 0.5472 0.7778
vn -0.6434 0.6620 0.3845
vn 0.1930 -0.9320 -0.3069
vn -0.9037 -0.0116 -0.4281
vn 0.1158 -0.7939 -0.5970
vn 0.1026 -0.6823 -0.7238
vn 0.8797 -0.4481 0.1590
vn 0.9114 -0.3672 0.1857
vn 0.3394 0.4559 0.8228
vn 0.3271 0.6167 0.7160
vn 0.3092 0.5472 0.7778
vn 0.9101 -0.3601 0.2053
vn 0.1763 -0.7725 -0.6101
vn 0.7752 0.3322 -0.5373
vn -0.0632 -0.6075 -0.7918
vn 0.7820 0.3327 -0.5270
vn -0.7620 -0.6374 0.1147
vn -0.8158 -0.5422 0.2010
vn -0.0949 -0.5755 -0.8123
vn -0.7592 -0.6478 0.0630
vn -0.5085 0.0136 0.8609
vn -0.5177 0.0670 0.8530
vn -0.5424 0.1791 0.8208
vn -0.8377 -0.4965 0.2276
vn -0.4429 0.2593 0.8582
vn -0.7507 -0.6574 0.0655
vn -0.1067 -0.6243 -0.7739
vn -0.5398 -0.0017 0.8418
vn 0.9504 0.2491 -0.1863
vn 0.4745 0.6973 0.5372
vn -0.5399 -0.0018 0.8418
vn 0.9504 0.2491 -0.1864
vn -0.5084 0.0136 0.8610
vn -0.5424 0.1792 0.8208
vn -0.5178 0.0669 0.8529
vn 0.4423 0.7253 0.5276
vn 0.5270 0.7272 0.4398
vn -0.4428 0.2594 0.8583
vn 0.3683 -0.6418 0.6726
vn 0.9031 -0.2021 0.3790
vn 0.9603 -0.0508 0.2743
vn 0.8065 0.5383 -0.2444
vn 0.5451 0.7450 -0.3844
vn 0.3205 0.6985 -0.6399
vn -0.1016 0.8250 -0.5559
vn -0.1125 0.8302 -0.5460
vn -0.8105 0.4430 -0.3832
vn -0.9855 0.0627 -0.1575
vn -0.7965 0.3355 -0.5030
vn -0.6459 -0.5800 0.4964
vn -0.6146 -0.6238 0.4829
vn 0.9866 0.1403 0.0830
vn 0.3138 0.5749 -0.7556
vn 0.3971 -0.5686 0.7204
vn 0.3849 0.5085 -0.7703
vn 0.4408 -0.4175 0.7946
vn 0.9838 0.1616 0.0771
vn 0.3896 0.4950 -0.7767
vn 0.9703 0.2285 0.0800
vn 0.4503 -0.2498 0.8572
vn -0.9475 0.2595 -0.1866
vn 0.1124 -0.9900 0.0847
vn 0.0874 -0.9935 0.0724
vn -0.8053 -0.5895 0.0633
vn 0.8265 0.5520 0.1104
vn 0.8266 0.5628 -0.0000
vn 0.9086 -0.4010 0.1168
vn -0.0912 0.9919 0.0884
vn -0.1193 0.9927 -0.0176
vn -0.0977 0.9447 0.3131
vn -0.9235 0.3795 0.0565
vn -0.9297 0.3682 0.0062
vn -0.8953 0.4447 0.0270
vn -0.1253 0.9913 -0.0408
vn -0.9164 0.3934 0.0743
vn -0.8459 0.3663 0.3876
vn -0.7429 -0.6388 0.1999
vn 0.0000 0.0000 1.0000
vn -0.0324 0.9609 0.2750
vn 0.8594 0.5103 -0.0311
vn 0.8898 -0.4137 -0.1928
vn 0.1806 -0.9786 -0.0982
vn -0.8459 0.3665 0.3875
vn -0.0323 0.9609 0.2750
vn -0.1204 0.9924 0.0235
vn 0.7875 0.6162 -0.0089
vn 0.8595 0.5101 -0.0310
vn 0.8897 -0.4138 -0.1927
vn 0.1807 -0.9786 -0.0982
vn 0.9206 -0.3906 0.0025
vn 0.0860 -0.9941 0.0657
vn -0.7428 -0.6390 0.1999
vn 0.1871 -0.9723 0.1399
vn 0.4234 -0.4713 -0.7737
vn 0.2911 0.9164 -0.2747
vn -0.2136 -0.3722 0.9033
vn 0.1407 -0.9837 0.1116
vn 0.0570 -0.9452 0.3214
vn 0.0205 -0.9337 0.3575
vn 0.4575 -0.5291 -0.7147
vn 0.1185 -0.9764 0.1803
vn -0.1817 -0.2908 0.9394
vn 0.8099 0.5794 0.0911
vn -0.0984 0.9870 0.1267
vn -0.1180 0.9905 0.0701
vn -0.9069 0.4210 0.0173
vn 0.8246 0.5467 0.1458
vn -0.8896 0.4568 0.0042
vn -0.0934 0.9931 0.0711
vn 0.8270 0.5471 0.1298
vn 0.9010 -0.4170 0.1194
vn -0.1558 0.9868 0.0444
vn 0.8171 0.5763 -0.0177
vn 0.8986 -0.4305 -0.0851
vn 0.9206 -0.3846 -0.0679
vn 0.0481 -0.9974 -0.0537
vn -0.0281 -0.9995 0.0111
vn -0.7566 -0.6530 0.0345
vn 0.0834 -0.9962 0.0267
vn -0.8174 -0.5721 0.0682
vn -0.8064 -0.5910 -0.0189
vn 0.5364 -0.4800 0.6942
vn -0.4623 -0.7652 -0.4481
vn -0.4758 -0.7472 -0.4641
vn 0.4496 -0.0919 0.8885
vn 0.0782 0.9580 0.2760
vn -0.8382 -0.5022 -0.2127
vn 0.4495 -0.0921 0.8885
vn -0.4622 -0.7653 -0.4480
vn -0.8383 -0.5022 -0.2122
vn 0.4496 -0.0920 0.8885
vn 0.5363 -0.4802 0.6941
vn -0.5784 0.8071 -0.1183
vn -0.6697 -0.0554 -0.7405
vn 0.3604 -0.9202 -0.1526
vn -0.8384 -0.5021 -0.2123
vn 0.0782 0.9581 0.2756
vn -0.5925 0.3893 -0.7053
vn -0.4623 -0.7651 -0.4482
vn -0.1607 -0.3629 0.9179
vn 0.3038 -0.4626 -0.8329
vn 0.3155 -0.4672 -0.8259
vn 0.0774 0.7600 -0.6453
vn -0.2383 0.8298 0.5046
vn 0.1111 0.7772 -0.6194
vn -0.3162 0.8170 0.4823
vn -0.1607 -0.3630 0.9178
vn 0.5183 -0.5037 -0.6911
vn -0.2136 -0.3722 0.9032
vn 0.2910 0.9164 -0.2747
vn 0.2216 -0.9564 0.1900
vn 0.4876 -0.0251 0.8727
vn -0.6339 -0.7201 -0.2823
vn 0.6340 0.7200 -0.2821
vn -0.2057 -0.8137 0.5437
vn 0.4008 -0.7792 -0.4819
vn 0.4390 0.4771 -0.7614
vn 0.1929 -0.9319 -0.3071
vn 0.8793 -0.4353 0.1933
vn 0.3346 0.3418 0.8782
vn 0.7919 0.2872 -0.5388
vn 0.4840 0.6937 0.5334
vn 0.8659 0.1327 -0.4823
vn -0.1405 -0.7693 -0.6232
vn 0.0087 -0.7646 -0.6444
vn 0.8537 -0.0419 -0.5191
vn 0.6549 0.6716 0.3465
vn 0.4549 -0.3351 0.8251
vn -0.8270 0.1088 -0.5515
vn -0.7615 -0.3881 0.5192
vn -0.7365 -0.4064 0.5407
vn -0.8549 0.1412 -0.4992
vn -0.8465 0.1901 -0.4973
vn -0.7506 -0.4396 0.4933
vn 0.4408 -0.4176 0.7946
vn 0.4548 -0.3351 0.8252
vn 0.4504 -0.2498 0.8572
vn -0.9476 0.2593 -0.1865
vn 0.3971 -0.5685 0.7205
vn -0.8557 0.3668 0.3649
vn -0.0939 0.9078 0.4087
vn -0.8234 0.3260 0.4644
vn 0.7625 0.5344 0.3648
vn 0.7391 0.4878 0.4646
vn 0.7973 -0.4011 0.4511
vn 0.7404 -0.4000 0.5402
vn 0.0901 -0.8708 0.4832
vn 0.0945 -0.9128 0.3973
vn -0.6984 -0.5558 0.4510
vn -0.6428 -0.5431 0.5402
vn 0.9026 -0.4281 0.0461
vn -0.8044 -0.5919 0.0508
vn -0.9297 0.3683 0.0062
vn -0.9235 0.3794 0.0565
vn -0.8953 0.4447 0.0269
vn -0.8896 0.4567 0.0042
vn -0.7968 -0.5989 -0.0800
vn -0.9215 0.3885 -0.0011
vn 0.0299 -0.9982 -0.0511
vn 0.0869 -0.9958 -0.0303
vn -0.8058 -0.5904 -0.0463
vn -0.9161 0.4010 0.0061
vn -0.8049 -0.5924 0.0346
vn 0.1030 -0.9935 0.0485
vn 0.9034 -0.4273 0.0362
vn 0.9145 -0.3974 0.0763
vn 0.9090 -0.4152 0.0357
vn -0.8268 -0.5534 0.1006
vn -0.9022 0.4257 0.0699
vn -0.8460 0.3660 0.3876
vn 0.8148 0.5797 0.0073
vn -0.1027 0.9947 -0.0084
vn -0.9022 0.4257 0.0698
vn -0.9161 0.4008 0.0061
vn -0.9215 0.3884 -0.0011
vn 0.7810 0.6178 -0.0916
vn -0.5883 0.5478 0.5948
vn -0.5881 0.5476 0.5952
vn 0.5484 -0.2453 0.7995
vn 0.2458 0.9570 -0.1540
vn 0.7472 0.5114 -0.4244
vn -0.8428 0.5376 0.0279
vn 0.3554 0.9320 0.0717
vn 0.9845 0.1327 0.1144
vn 0.4850 0.8704 -0.0845
vn -0.3579 0.8747 -0.3269
vn -0.8655 0.4989 -0.0442
vn -0.1738 0.6689 0.7228
usemtl cm059_h_tree018
s 1
f 1/1/1 2/2/1 3/3/1
f 1/1/1 4/4/1 2/2/1
f 5/5/1 6/6/1 7/7/1
f 5/5/1 8/8/1 6/6/1
f 9/9/2 10/10/3 11/11/2
f 9/9/2 12/12/4 10/10/3
f 13/13/5 14/14/5 15/15/6
f 13/13/5 16/16/5 14/14/5
f 17/17/7 18/18/8 19/19/5
f 17/17/7 20/20/8 18/18/8
f 21/21/9 22/22/10 23/23/11
f 21/21/9 24/24/9 22/22/10
f 25/25/10 26/26/10 27/27/12
f 25/25/10 28/28/10 26/26/10
f 29/29/13 30/30/14 31/31/13
f 29/29/13 32/32/13 30/30/14
f 33/33/13 34/34/13 35/35/15
f 33/33/13 36/36/13 34/34/13
f 37/37/16 38/38/16 39/39/16
f 40/40/17 37/37/16 39/39/16
f 41/41/18 42/42/18 43/43/18
f 44/44/19 41/41/18 43/43/18
f 45/45/18 46/46/18 47/47/18
f 48/48/18 45/45/18 47/47/18
f 49/49/20 50/50/21 51/51/20
f 52/52/21 49/49/20 51/51/20
f 53/53/21 54/54/21 55/55/21
f 56/56/22 53/53/21 55/55/21
f 57/57/23 58/58/24 59/59/24
f 60/60/23 57/57/23 59/59/24
f 61/61/24 62/62/23 63/63/23
f 64/64/24 61/61/24 63/63/23
f 65/65/25 66/66/25 67/67/25
f 68/68/25 65/65/25 67/67/25
f 69/69/25 70/70/25 71/71/25
f 72/72/26 69/69/25 71/71/25
f 73/73/27 74/74/27 75/75/27
f 76/76/27 73/73/27 75/75/27
f 77/77/27 78/78/27 79/79/27
f 80/80/27 77/77/27 79/79/27
f 81/81/28 82/82/29 83/83/28
f 84/84/28 81/81/28 83/83/28
f 85/85/30 86/86/28 87/87/28
f 88/88/30 85/85/30 87/87/28
f 89/89/31 90/90/31 91/91/31
f 92/92/31 89/89/31 91/91/31
f 93/93/32 94/94/32 95/95/32
f 96/96/33 93/93/32 95/95/32
f 97/97/33 98/98/32 99/99/33
f 100/100/34 97/97/33 99/99/33
f 101/101/35 102/102/31 103/103/31
f 104/104/35 101/101/35 103/103/31
f 105/105/36 106/106/36 107/107/36
f 108/108/36 105/105/36 107/107/36
f 109/109/36 110/110/37 111/111/37
f 112/112/38 109/109/36 111/111/37
f 113/113/39 114/114/40 115/115/39
f 116/116/39 113/113/39 115/115/39
f 117/117/40 118/118/39 119/119/39
f 120/120/40 117/117/40 119/119/39
f 121/121/41 122/122/41 123/123/41
f 124/124/42 121/121/41 123/123/41
f 125/125/43 126/126/43 127/127/43
f 128/128/43 125/125/43 127/127/43
f 129/129/43 130/130/43 131/131/43
f 132/132/44 129/129/43 131/131/43
f 133/133/41 134/134/41 135/135/41
f 136/136/45 133/133/41 135/135/41
f 137/137/46 138/138/47 139/139/47
f 140/140/46 137/137/46 139/139/47
f 141/141/46 142/142/46 143/143/46
f 144/144/48 141/141/46 143/143/46
f 145/145/49 146/146/50 147/147/50
f 148/148/49 145/145/49 147/147/50
f 149/149/51 150/150/51 151/151/51
f 152/152/50 149/149/51 151/151/51
f 153/153/52 154/154/53 155/155/53
f 156/156/54 153/153/52 155/155/53
f 157/157/53 158/158/53 159/159/52
f 160/160/53 157/157/53 159/159/52
f 161/161/55 162/162/56 163/163/55
f 164/164/55 161/161/55 163/163/55
f 165/165/57 166/166/58 167/167/57
f 165/165/57 168/168/58 166/166/58
f 169/169/58 170/170/58 171/171/59
f 169/169/58 172/172/58 170/170/58
usemtl cm004_bg_tree002_cmem
f 173/173/60 174/174/61 175/175/62
f 176/176/63 177/177/64 173/173/65
f 178/178/66 179/179/67 173/173/60
f 180/180/68 177/177/64 176/176/63
f 180/180/68 181/181/69 177/177/64
f 182/182/70 178/178/71 181/181/72
f 183/183/73 182/182/70 181/181/72
f 184/184/74 178/178/71 182/182/70
f 185/185/75 184/184/74 182/182/70
f 186/186/70 183/183/76 185/185/77
f 187/187/78 178/178/71 184/184/74
f 188/188/79 187/187/78 184/184/74
f 189/189/80 188/188/79 184/184/74
f 190/190/81 188/188/79 189/189/80
f 191/191/82 187/187/78 188/188/79
f 192/192/83 191/191/82 188/188/79
f 193/193/84 194/194/85 188/188/86
f 195/195/87 193/193/84 188/188/86
f 196/196/88 197/197/89 193/193/90
f 196/196/91 198/198/90 195/195/81
f 199/199/92 196/196/91 195/195/81
f 200/200/93 199/199/92 195/195/81
f 201/201/94 200/200/93 195/195/81
f 178/178/71 187/187/78 202/202/95
f 203/203/96 204/204/97 205/205/98
f 206/206/99 207/207/100 208/208/101
f 209/209/102 208/208/101 207/207/100
f 210/210/103 208/208/101 209/209/102
f 211/211/104 209/209/102 207/207/100
f 209/209/102 212/212/105 210/210/103
f 213/213/106 209/209/102 211/211/104
f 209/209/102 213/213/106 212/212/105
f 214/214/107 215/215/108 216/216/109
f 217/217/110 215/215/108 214/214/107
f 217/217/110 218/218/111 215/215/108
f 219/219/112 217/217/110 214/214/107
f 220/220/113 217/217/110 219/219/112
f 221/221/114 220/220/113 219/219/112
f 221/221/114 222/222/115 220/220/113
f 223/223/116 220/220/113 222/222/115
f 224/224/117 220/220/113 223/223/116
f 217/217/110 220/220/113 224/224/117
f 225/225/118 217/217/110 224/224/117
f 226/226/119 217/217/110 225/225/118
f 218/218/111 217/217/110 226/226/119
f 227/227/120 218/218/111 226/226/119
f 228/228/121 227/227/120 226/226/119
f 229/229/122 218/218/111 227/227/120
f 230/230/123 218/218/111 229/229/122
f 231/231/124 229/229/122 227/227/120
f 229/229/122 232/232/115 230/230/123
f 232/232/115 229/229/122 231/231/124
f 232/232/115 233/233/125 230/230/123
f 234/234/126 230/230/123 233/233/125
f 235/235/127 230/230/123 234/234/126
f 236/236/128 234/234/126 233/233/125
f 237/237/121 231/231/124 227/227/120
f 238/238/129 239/239/130 240/240/131
f 241/241/132 239/239/130 238/238/129
f 242/242/133 239/239/130 241/241/132
f 242/242/133 243/243/134 239/239/130
f 244/244/135 243/243/134 242/242/133
f 243/243/134 245/245/136 239/239/130
f 246/246/137 239/239/130 245/245/136
f 247/247/138 245/245/136 243/243/134
f 248/248/139 245/245/136 247/247/138
f 249/249/140 245/245/136 248/248/139
f 246/246/137 245/245/136 249/249/140
f 250/250/141 246/246/137 249/249/140
f 251/251/142 250/250/141 249/249/140
f 252/252/143 251/251/142 249/249/140
f 253/253/144 252/252/143 249/249/140
f 254/254/145 253/253/144 249/249/140
f 248/248/139 254/254/145 249/249/140
f 255/255/146 252/252/143 253/253/144
f 256/256/147 255/255/146 253/253/144
f 257/257/148 255/255/146 256/256/147
f 257/257/148 258/258/149 255/255/146
f 252/252/143 255/255/146 258/258/149
f 259/259/150 252/252/143 258/258/149
f 257/257/148 260/260/151 258/258/149
f 261/261/152 262/262/153 263/263/154
f 264/264/155 265/265/156 262/262/153
f 266/266/157 265/265/156 264/264/155
f 266/266/157 267/267/158 265/265/156
f 268/268/159 266/266/157 264/264/155
f 269/269/160 268/268/159 264/264/155
f 270/270/161 269/269/160 264/264/155
f 271/271/162 268/268/159 269/269/160
f 272/272/163 271/271/162 269/269/160
f 270/270/161 272/272/163 269/269/160
f 273/273/164 271/271/162 272/272/163
f 274/274/165 273/273/164 272/272/163
f 270/270/161 274/274/165 272/272/163
f 270/270/161 275/275/166 274/274/165
f 261/261/152 275/275/166 270/270/161
f 276/276/167 275/275/166 261/261/152
f 277/277/168 275/275/166 276/276/167
f 278/278/169 275/275/166 277/277/168
f 279/279/170 278/278/169 277/277/168
f 279/279/170 280/280/171 278/278/169
f 281/281/172 278/278/169 280/280/171
f 282/282/173 278/278/169 281/281/172
f 275/275/166 278/278/169 282/282/173
f 283/283/174 275/275/166 282/282/173
f 274/274/165 275/275/166 283/283/174
f 284/284/175 285/285/176 286/286/177
f 287/287/178 288/288/179 285/285/176
f 289/289/180 287/287/178 285/285/176
f 289/289/180 290/290/181 287/287/178
f 291/291/182 287/287/178 290/290/181
f 291/291/182 292/292/183 287/287/178
f 293/293/184 287/287/178 292/292/183
f 288/288/179 287/287/178 293/293/184
f 294/294/185 288/288/179 293/293/184
f 295/295/186 294/294/185 293/293/184
f 296/296/187 290/290/181 297/297/188
f 298/298/189 290/290/181 296/296/187
f 299/299/190 296/296/187 297/297/188
f 296/296/187 299/299/190 298/298/189
f 300/300/191 301/301/192 302/302/193
f 300/300/191 303/303/194 301/301/192
f 304/304/195 305/305/196 306/306/197
f 307/307/198 304/304/195 306/306/197
f 308/308/199 304/304/195 307/307/198
f 309/309/200 310/310/201 311/311/202
f 312/312/203 311/311/202 310/310/201
f 313/313/204 312/312/203 310/310/201
f 314/314/205 311/311/202 312/312/203
f 315/315/206 312/312/203 313/313/204
f 312/312/203 315/315/206 314/314/205
f 316/316/207 315/315/206 313/313/204
f 317/317/208 315/315/206 316/316/207
f 318/318/209 315/315/206 317/317/208
f 319/319/210 315/315/206 318/318/209
f 314/314/205 315/315/206 319/319/210
f 320/320/211 319/319/210 318/318/209
f 321/321/212 320/320/211 318/318/209
f 317/317/208 321/321/212 318/318/209
f 322/322/213 311/311/202 323/323/214
f 322/322/213 324/324/215 311/311/202
f 325/325/216 322/322/213 323/323/214
f 326/326/217 324/324/215 322/322/213
f 327/327/218 322/322/213 325/325/216
f 322/322/213 327/327/218 326/326/217
f 328/328/219 329/329/220 327/327/218
f 330/330/221 327/327/218 329/329/220
f 331/331/222 330/330/221 329/329/220
f 328/328/219 331/331/222 329/329/220
f 332/332/223 333/333/224 334/334/225
f 335/335/226 336/336/227 337/337/228
f 338/338/229 336/336/227 335/335/226
f 339/339/230 336/336/227 338/338/229
f 340/340/231 338/338/229 335/335/226
f 341/341/232 338/338/229 340/340/231
f 341/341/232 339/339/230 338/338/229
f 342/342/233 339/339/230 341/341/232
f 343/343/234 339/339/230 342/342/233
f 344/344/235 339/339/230 343/343/234
f 345/345/236 344/344/235 343/343/234
f 346/346/237 347/347/238 348/348/239
f 349/349/240 346/346/237 348/348/239
f 350/350/241 349/349/240 348/348/239
f 351/351/242 350/350/241 348/348/239
f 352/352/238 353/353/243 354/354/239
f 355/355/242 354/354/239 353/353/243
f 356/356/244 357/357/245 358/358/246
f 359/359/247 358/358/246 357/357/245
f 360/360/248 359/359/247 357/357/245
f 361/361/249 362/362/250 363/363/251
f 364/364/252 363/363/251 362/362/250
f 365/365/253 364/364/252 362/362/250
f 366/366/254 367/367/255 368/368/256
f 369/369/257 366/366/254 368/368/256
f 366/366/254 370/370/258 367/367/255
f 370/370/258 366/366/254 369/369/257
f 371/371/259 372/372/260 373/373/261
f 374/374/262 371/371/259 373/373/261
f 375/375/106 372/372/260 371/371/259
f 376/376/263 371/371/259 374/374/262
f 371/371/259 376/376/263 375/375/106
f 377/377/264 378/378/265 379/379/266
f 380/380/267 379/379/266 378/378/265
f 381/381/268 378/378/265 377/377/264
f 378/378/265 382/382/269 380/380/267
f 383/383/270 382/382/269 378/378/265
f 381/381/268 383/383/270 378/378/265
f 384/384/271 383/383/270 381/381/268
f 385/385/272 384/384/271 381/381/268
f 384/384/271 386/386/273 383/383/270
f 387/387/274 384/384/271 385/385/272
f 384/384/271 387/387/274 386/386/273
f 388/388/275 389/389/276 387/387/274
f 390/390/277 389/389/276 388/388/275
f 385/385/272 390/390/277 388/388/275
f 391/391/278 390/390/277 385/385/272
f 392/392/279 390/390/277 391/391/278
f 392/392/279 393/393/280 390/390/277
f 389/389/276 390/390/277 393/393/280
f 394/394/281 393/393/280 392/392/279
f 395/395/236 394/394/281 392/392/279
f 396/396/282 395/395/236 392/392/279
f 391/391/278 396/396/282 392/392/279
f 397/397/283 398/398/284 193/193/285
f 399/399/286 398/398/284 397/397/283
f 400/400/287 401/401/288 402/402/289
f 403/403/290 404/404/286 405/405/291
f 406/406/292 407/407/293 408/408/61
f 185/185/75 409/409/294 184/184/74
f 410/410/295 184/184/74 409/409/294
f 410/410/295 189/189/80 184/184/74
f 411/411/296 189/189/80 410/410/295
f 411/411/296 195/195/81 189/189/80
f 201/201/94 195/195/81 411/411/296
f 412/412/297 413/413/298 191/191/299
f 414/414/300 412/412/297 191/191/299
f 415/415/301 370/370/258 369/369/257
f 374/374/262 370/370/258 415/415/301
f 376/376/263 374/374/262 415/415/301
f 416/416/302 370/370/258 374/374/262
f 373/373/261 416/416/302 374/374/262
f 417/417/303 370/370/258 416/416/302
f 367/367/255 370/370/258 417/417/303
f 418/418/304 417/417/303 416/416/302
f 210/210/103 418/418/304 416/416/302
f 373/373/261 210/210/103 416/416/302
f 419/419/305 418/418/304 210/210/103
f 420/420/306 418/418/304 419/419/305
f 417/417/303 418/418/304 420/420/306
f 367/367/255 417/417/303 420/420/306
f 368/368/256 367/367/255 420/420/306
f 421/421/307 368/368/256 420/420/306
f 419/419/305 421/421/307 420/420/306
f 419/419/305 422/422/308 421/421/307
f 423/423/263 422/422/308 419/419/305
f 212/212/105 423/423/263 419/419/305
f 210/210/103 212/212/105 419/419/305
f 213/213/106 423/423/263 212/212/105
f 373/373/261 208/208/101 210/210/103
f 373/373/261 424/424/309 208/208/101
f 372/372/260 424/424/309 373/373/261
f 424/424/309 206/206/99 208/208/101
f 375/375/106 425/425/104 372/372/260
f 421/421/307 422/422/308 426/426/310
f 427/427/311 421/421/307 426/426/310
f 214/214/107 216/216/109 219/219/112
f 428/428/312 219/219/112 216/216/109
f 428/428/312 221/221/114 219/219/112
f 429/429/313 221/221/114 428/428/312
f 215/215/108 235/235/127 216/216/109
f 230/230/123 235/235/127 215/215/108
f 218/218/111 230/230/123 215/215/108
f 226/226/119 225/225/118 228/228/121
f 224/224/117 228/228/121 225/225/118
f 223/223/116 237/237/314 224/224/117
f 253/253/144 254/254/145 256/256/147
f 248/248/139 256/256/147 254/254/145
f 247/247/138 430/430/315 248/248/139
f 259/259/150 431/431/316 432/432/317
f 251/251/142 259/259/150 432/432/317
f 433/433/318 251/251/142 432/432/317
f 252/252/143 259/259/150 251/251/142
f 250/250/141 251/251/142 433/433/318
f 246/246/137 250/250/141 433/433/318
f 240/240/131 246/246/137 433/433/318
f 240/240/131 239/239/130 246/246/137
f 274/274/165 283/283/174 273/273/164
f 282/282/173 273/273/164 283/283/174
f 281/281/172 434/434/319 282/282/173
f 264/264/155 262/262/153 261/261/152
f 270/270/161 264/264/155 261/261/152
f 263/263/154 276/276/167 261/261/152
f 277/277/168 276/276/167 263/263/154
f 435/435/320 277/277/168 263/263/154
f 435/435/320 279/279/170 277/277/168
f 436/436/321 279/279/170 435/435/320
f 291/291/182 290/290/181 298/298/189
f 289/289/180 297/297/188 290/290/181
f 289/289/180 437/437/322 297/297/188
f 299/299/190 297/297/188 437/437/322
f 300/300/191 299/299/190 437/437/322
f 438/438/323 300/300/191 437/437/322
f 284/284/175 438/438/323 437/437/322
f 289/289/180 284/284/175 437/437/322
f 285/285/176 284/284/175 289/289/180
f 286/286/177 438/438/323 284/284/175
f 306/306/197 438/438/323 286/286/177
f 303/303/194 438/438/323 306/306/197
f 300/300/191 438/438/323 303/303/194
f 305/305/196 303/303/194 306/306/197
f 286/286/177 307/307/198 306/306/197
f 439/439/324 307/307/198 286/286/177
f 440/440/325 439/439/324 286/286/177
f 285/285/176 440/440/325 286/286/177
f 285/285/176 288/288/179 440/440/325
f 294/294/185 440/440/325 288/288/179
f 294/294/185 441/441/326 440/440/325
f 439/439/324 440/440/325 441/441/326
f 442/442/327 439/439/324 441/441/326
f 442/442/327 443/443/328 439/439/324
f 307/307/198 439/439/324 443/443/328
f 308/308/199 307/307/198 443/443/328
f 444/444/329 327/327/218 330/330/221
f 326/326/217 327/327/218 444/444/329
f 325/325/216 328/328/219 327/327/218
f 325/325/216 445/445/330 328/328/219
f 331/331/222 328/328/219 445/445/330
f 446/446/331 331/331/222 445/445/330
f 447/447/332 446/446/331 445/445/330
f 448/448/333 447/447/332 445/445/330
f 325/325/216 448/448/333 445/445/330
f 323/323/214 448/448/333 325/325/216
f 449/449/334 448/448/333 323/323/214
f 450/450/335 448/448/333 449/449/334
f 447/447/332 448/448/333 450/450/335
f 451/451/336 447/447/332 450/450/335
f 451/451/336 452/452/337 447/447/332
f 446/446/331 447/447/332 452/452/337
f 453/453/338 446/446/331 452/452/337
f 454/454/339 446/446/331 453/453/338
f 455/455/340 451/451/336 450/450/335
f 320/320/211 455/455/340 450/450/335
f 449/449/334 320/320/211 450/450/335
f 456/456/200 455/455/340 320/320/211
f 321/321/212 456/456/200 320/320/211
f 449/449/334 319/319/210 320/320/211
f 314/314/205 319/319/210 449/449/334
f 323/323/214 314/314/205 449/449/334
f 323/323/214 311/311/202 314/314/205
f 324/324/215 309/309/200 311/311/202
f 457/457/341 341/341/232 340/340/231
f 458/458/342 457/457/341 340/340/231
f 458/458/342 459/459/343 457/457/341
f 460/460/344 458/458/342 340/340/231
f 335/335/226 460/460/344 340/340/231
f 461/461/345 458/458/342 460/460/344
f 337/337/228 460/460/344 335/335/226
f 462/462/346 460/460/344 337/337/228
f 461/461/345 460/460/344 462/462/346
f 463/463/347 461/461/345 462/462/346
f 464/464/348 463/463/347 462/462/346
f 465/465/349 464/464/348 462/462/346
f 337/337/228 465/465/349 462/462/346
f 466/466/350 464/464/348 465/465/349
f 467/467/351 464/464/348 466/466/350
f 468/468/343 467/467/351 466/466/350
f 469/469/341 468/468/343 466/466/350
f 334/334/225 469/469/341 466/466/350
f 465/465/349 334/334/225 466/466/350
f 465/465/349 332/332/223 334/334/225
f 337/337/228 332/332/223 465/465/349
f 337/337/228 470/470/352 332/332/223
f 336/336/227 470/470/352 337/337/228
f 470/470/352 333/333/224 332/332/223
f 389/389/276 470/470/352 336/336/227
f 393/393/280 470/470/352 389/389/276
f 333/333/224 470/470/352 393/393/280
f 471/471/353 333/333/224 393/393/280
f 334/334/225 333/333/224 471/471/353
f 394/394/281 471/471/353 393/393/280
f 471/471/353 472/472/354 334/334/225
f 472/472/354 471/471/353 394/394/281
f 472/472/354 473/473/355 334/334/225
f 469/469/341 334/334/225 473/473/355
f 394/394/281 474/474/356 472/472/354
f 395/395/236 474/474/356 394/394/281
f 396/396/282 475/475/357 395/395/236
f 476/476/267 475/475/357 396/396/282
f 477/477/358 476/476/267 396/396/282
f 478/478/359 476/476/267 477/477/358
f 479/479/360 477/477/358 396/396/282
f 391/391/278 479/479/360 396/396/282
f 480/480/361 477/477/358 479/479/360
f 481/481/362 477/477/358 480/480/361
f 478/478/359 477/477/358 481/481/362
f 482/482/363 478/478/359 481/481/362
f 483/483/364 482/482/363 481/481/362
f 480/480/361 483/483/364 481/481/362
f 484/484/365 483/483/364 480/480/361
f 485/485/366 484/484/365 480/480/361
f 479/479/360 485/485/366 480/480/361
f 479/479/360 486/486/367 485/485/366
f 479/479/360 391/391/278 486/486/367
f 385/385/272 486/486/367 391/391/278
f 381/381/268 486/486/367 385/385/272
f 377/377/264 486/486/367 381/381/268
f 485/485/366 486/486/367 377/377/264
f 487/487/368 485/485/366 377/377/264
f 484/484/365 485/485/366 487/487/368
f 364/364/252 484/484/365 487/487/368
f 364/364/252 483/483/364 484/484/365
f 364/364/252 488/488/369 483/483/364
f 482/482/363 483/483/364 488/488/369
f 489/489/370 482/482/363 488/488/369
f 490/490/371 489/489/370 488/488/369
f 365/365/253 490/490/371 488/488/369
f 364/364/252 365/365/253 488/488/369
f 487/487/368 363/363/251 364/364/252
f 491/491/372 363/363/251 487/487/368
f 377/377/264 491/491/372 487/487/368
f 379/379/266 491/491/372 377/377/264
f 492/492/373 491/491/372 379/379/266
f 359/359/247 491/491/372 492/492/373
f 359/359/247 363/363/251 491/491/372
f 360/360/248 363/363/251 359/359/247
f 360/360/248 361/361/249 363/363/251
f 492/492/373 358/358/246 359/359/247
f 493/493/374 358/358/246 492/492/373
f 356/356/244 358/358/246 493/493/374
f 494/494/375 493/493/374 492/492/373
f 495/495/376 494/494/375 492/492/373
f 379/379/266 495/495/376 492/492/373
f 379/379/266 380/380/267 495/495/376
f 388/388/275 387/387/274 385/385/272
f 496/496/377 386/386/273 387/387/274
f 389/389/276 496/496/377 387/387/274
f 389/389/276 336/336/227 496/496/377
f 339/339/230 496/496/377 336/336/227
f 344/344/235 496/496/377 339/339/230
f 386/386/273 496/496/377 344/344/235
f 345/345/236 386/386/273 344/344/235
f 382/382/269 386/386/273 345/345/236
f 383/383/270 386/386/273 382/382/269
usemtl cm059_h_tree017
f 497/497/378 498/498/379 499/499/379
f 500/500/379 497/497/378 499/499/379
f 501/501/380 502/502/380 503/503/380
f 504/504/380 501/501/380 503/503/380
f 505/505/381 506/506/381 507/507/381
f 508/508/381 505/505/381 507/507/381
f 509/509/382 510/510/382 511/511/382
f 512/512/382 509/509/382 511/511/382
f 513/513/383 514/514/383 515/515/383
f 516/516/383 513/513/383 515/515/383
f 517/517/384 518/518/384 519/519/384
f 520/520/384 517/517/384 519/519/384
f 521/521/385 522/522/385 523/523/385
f 524/524/385 521/521/385 523/523/385
f 525/525/386 526/526/386 527/527/386
f 528/528/386 525/525/386 527/527/386
f 529/529/387 530/530/387 531/531/387
f 532/532/387 529/529/387 531/531/387
f 533/533/388 534/534/388 535/535/388
f 536/536/388 533/533/388 535/535/388
f 537/537/389 538/538/389 539/539/389
f 540/540/389 537/537/389 539/539/389
