# Blender v2.91.0 OBJ File: ''
# www.blender.org
mtllib va_tree_b0.mtl
o VA_TREE_B0_0000_st059_farview01_middle_13.002
v 0.762308 -0.703820 4.241480
v 2.881021 -0.851243 5.771389
v 3.539614 -3.153352 4.635076
v 1.421801 -3.006096 3.105754
v 0.762339 -0.703804 4.241479
v 1.142923 -2.830324 5.719490
v 3.539675 -3.153322 4.635053
v 3.159349 -1.027710 3.157615
v 0.486742 -0.305725 3.899470
v 1.667788 -2.385048 2.835074
v 0.457033 -3.966195 4.584013
v -0.723570 -1.887803 5.648039
v 0.486704 -0.305733 3.899470
v -0.956396 -2.321686 3.059995
v 0.456957 -3.966210 4.584017
v 1.899523 -1.951173 5.423205
v -1.160879 -1.133599 6.579720
v -3.828573 -2.836336 5.280720
v -5.263449 -2.987070 8.429961
v -2.596960 -1.285052 9.728544
v -0.240560 -1.410104 5.340274
v -0.860861 -4.650820 8.408966
v -2.669409 -2.342897 7.215321
v 1.568644 -3.719034 6.534507
v -0.240499 -1.410066 5.340250
v -0.860815 -4.650805 8.408915
v -1.267965 -4.447420 5.276010
v 0.166750 -1.613711 8.474429
v 1.382639 -0.974405 4.813049
v 3.339914 -3.590128 7.625286
v 4.294199 -1.607202 5.544583
v 0.428003 -2.958223 6.894683
v 1.382609 -0.974366 4.813029
v 3.339884 -3.590090 7.625267
v 2.404993 -3.866503 4.757926
v 2.317934 -0.697969 7.681552
v 1.103235 1.388572 5.978286
v 3.072886 3.488866 8.665185
v 0.475710 3.500585 7.711030
v 3.701517 1.376906 6.932906
v 1.103220 1.388587 5.978307
v 3.072878 3.488889 8.665204
v 2.617662 3.747069 5.948206
v 1.558695 1.130399 8.696442
v 0.630419 0.969817 4.889182
v 1.694262 4.011641 7.153203
v -0.644041 3.262427 5.877551
v 2.969530 1.719504 6.165398
v 0.630419 0.969863 4.889222
v 1.694239 4.011687 7.153244
v 1.723757 3.510086 4.432309
v 0.600939 1.471792 7.611267
v -1.098303 1.468253 5.306154
v -2.242247 4.628356 7.688142
v 0.292528 3.408156 7.008519
v -3.634085 2.689040 5.986138
v -0.497679 0.869277 6.505357
v -1.471189 2.406788 10.629930
v 0.450708 3.355566 8.298041
v -2.420446 -0.079920 8.838312
v -0.497579 0.869261 6.505290
v -1.471090 2.406781 10.629863
v -2.970457 2.418104 7.839918
v 1.002298 0.857999 9.296448
v -1.098341 1.468192 5.306138
v -2.242270 4.628318 7.688099
v -1.493505 4.345695 4.906875
v -1.847433 1.751043 8.088534
v 0.064798 0.858823 7.772324
v 3.081789 0.711828 8.851721
v 2.693064 3.580877 10.323684
v -0.322683 3.727926 9.244798
v 0.064798 0.858801 7.772316
v 2.088503 3.267882 7.147939
v 2.693003 3.580839 10.323750
v 0.670191 1.172787 10.947983
v -0.787741 -0.497187 8.802559
v -0.675939 -2.777987 11.055156
v -2.859213 -1.142017 12.817570
v -2.971067 1.137937 10.565956
v -0.787741 -0.497195 8.802557
v 0.113916 -0.240833 11.870150
v -2.859228 -1.142001 12.817564
v -3.760633 -1.398279 9.751266
v -0.201551 0.005392 7.772366
v -3.085752 0.490897 6.455437
v -4.407484 0.661993 9.417309
v -1.524496 0.176694 10.733944
v -0.201574 0.005338 7.772437
v -1.913778 2.582891 8.617105
v -4.407507 0.661947 9.417368
v -2.696142 -1.914606 8.573092
v -1.160902 -1.133577 6.579720
v -3.854490 0.171537 8.236389
v -5.263479 -2.987032 8.429988
v -2.571081 -4.291765 6.774023
v -0.496237 -0.660836 6.156040
v -0.583883 -1.977329 10.907638
v -2.774160 -2.323344 8.245528
v 1.694826 -0.314761 8.819351
v -0.496229 -0.660859 6.156071
v -0.583876 -1.977359 10.907664
v 1.045961 -3.154131 8.085854
v -2.126684 0.516294 8.979149
v -0.287207 -0.010470 8.671333
v 0.951891 -1.940036 11.540709
v -0.409017 0.632991 13.856028
v -1.647634 2.561795 10.987966
v -0.287191 -0.010401 8.671337
v -2.873938 -0.363117 11.255135
v -0.408995 0.633052 13.856031
v 2.176783 0.985669 11.273436
v 0.066416 0.623502 7.621106
v 0.179636 0.656362 7.678768
v 0.130541 0.680533 7.695398
v -0.042051 0.496054 7.491064
v -0.023901 0.413604 7.472937
v -0.023901 0.413604 7.472937
v 0.179636 0.656362 7.678768
v -0.133352 0.394858 7.400987
v -0.168028 0.316840 7.333453
v 0.049669 0.429839 7.450766
v -0.047544 0.285216 7.309458
v 0.179636 0.656362 7.678768
v 0.037058 0.489600 7.424536
v -0.098181 0.341117 7.284495
v 0.203745 0.711393 7.663957
v -0.148168 0.364699 7.316652
v 0.177698 0.761289 7.703506
v -0.148168 0.364699 7.316652
v 0.124453 0.699843 7.611487
v 0.177698 0.761289 7.703506
v 0.066416 0.623502 7.621106
v 0.130541 0.680533 7.695398
v -0.042051 0.496054 7.491064
v 0.124453 0.699843 7.611487
v -0.133352 0.394858 7.400987
v -0.168028 0.316840 7.333453
v 0.179636 0.656362 7.678768
v 0.049669 0.429839 7.450766
v 0.203745 0.711393 7.663957
v 0.181460 0.486877 4.066128
v 0.260378 0.414909 4.084709
v -0.141821 0.000740 3.686757
v -0.044088 -0.127037 3.751353
v 1.050150 1.612555 5.389812
v 0.635630 0.996031 4.964737
v 0.692286 0.998313 4.939065
v 0.464792 0.643683 4.505438
v 0.391703 0.640754 4.538567
v 0.502634 0.691040 4.454530
v 0.234324 0.383911 4.153419
v 0.168741 0.392090 4.200081
v 0.721628 1.035018 4.899605
v 1.050150 1.612555 5.389812
v 0.669077 1.100829 4.882948
v -0.486570 -0.380731 5.798807
v -0.553297 -0.319864 5.814528
v -0.195326 0.007697 5.481366
v -0.700842 -0.625184 6.109091
v -0.758177 -0.553376 6.127262
v -0.445211 -0.355089 5.876266
v -0.640066 -0.573373 6.173507
v -0.475805 -0.300569 5.912094
v -0.851820 -0.859758 6.539485
v -0.898924 -0.899911 6.489558
v -0.943357 -0.844262 6.503639
v -1.221182 -1.332666 6.918193
v -0.918554 -0.813226 6.537016
v -0.870642 -0.811296 6.558721
v -0.726171 -0.513337 6.170315
v -0.531271 -0.293641 5.872627
v -0.664358 -0.510850 6.198325
v -0.870642 -0.811296 6.558721
v -0.664358 -0.510850 6.198325
v -0.531271 -0.293641 5.872627
v -0.726171 -0.513337 6.170315
v -0.223204 0.130751 5.597754
v -0.155020 0.100035 5.618813
v -0.128042 0.045081 5.578694
v -0.370230 0.103226 0.452540
v -0.297033 0.110473 1.709230
v -0.165090 0.195092 0.452540
v -0.145712 0.178245 1.709230
v -0.011366 0.081077 1.709230
v -0.235937 -0.015785 2.828550
v -0.299902 -0.029556 3.522590
v -0.152342 0.060219 3.522590
v -0.254286 -0.194062 2.828550
v -0.277357 -0.045861 3.623830
v -0.359022 -0.170113 3.623830
v -0.393568 -0.205918 3.522590
v -0.181188 -0.335999 3.522590
v -0.163504 -0.311531 3.623830
v -0.036245 -0.220246 3.522590
v -0.179624 -0.201134 4.496350
v -0.001951 -0.245041 3.623830
v -0.053709 -0.144745 4.496350
v -0.196386 -0.058778 5.229150
v 0.016871 -0.062157 3.623830
v -0.090589 -0.011400 5.229150
v -0.039587 -0.007508 4.496350
v -0.211111 -0.252090 0.452540
v -0.179663 -0.151619 1.709230
v -0.393240 -0.120361 0.452540
v 0.038401 -0.192321 0.452540
v -0.028341 -0.083855 1.709230
v 0.048548 -0.199653 0.217050
v 0.017038 0.063371 0.452540
v -0.011366 0.081077 1.709230
v 0.072825 -0.047562 2.828550
v 0.054484 -0.225830 2.828550
v -0.017416 -0.037361 3.522590
v -0.191458 0.007773 7.573517
v -0.228674 0.034682 7.573517
v -0.233374 -0.010995 7.573517
v -0.196165 -0.037912 7.573517
v -0.238073 -0.056680 7.573517
v -0.275282 -0.029771 7.573517
v -0.228674 0.034682 7.573517
v -0.270582 0.015914 7.573517
v -0.233374 -0.010995 7.573517
v -0.275282 -0.029771 7.573517
v -0.191458 0.007773 7.573517
v -0.196165 -0.037912 7.573517
v -0.070982 -0.023675 7.231310
v -0.137388 -0.053407 7.231310
v -0.238073 -0.056680 7.573517
v -0.275282 -0.029771 7.573517
v -0.270582 0.015914 7.573517
v -0.196348 -0.010774 7.231310
v -0.188894 0.061614 7.231310
v -0.228674 0.034682 7.573517
v 0.168741 0.392090 4.200081
v 0.362978 0.714691 4.509212
v 0.132555 0.456566 4.157724
v 0.434855 0.775947 4.433034
v 0.391703 0.640754 4.538567
v 0.613367 1.053344 4.941994
v 0.635630 0.996031 4.964737
v 0.092600 -0.171890 3.369151
v -0.111074 -0.061585 3.324500
v 0.182627 -0.250847 3.697966
v 0.240892 -0.267151 3.576963
v -0.020666 -0.099221 3.162563
v 0.047594 -0.247116 3.283992
v 0.170984 -0.398010 3.582866
v 0.002588 -0.322342 3.383549
v 0.131762 -0.385132 3.666368
v -0.121885 -0.266747 3.188022
v -0.071279 -0.182984 3.082942
v -0.171263 -0.226074 3.297436
v 0.492601 -0.552971 3.840847
v 0.450510 -0.560662 3.920889
v 0.129603 -0.319130 3.727092
v 1.232630 -1.008194 4.380414
v 0.435923 -0.506394 3.993846
v 1.200693 -1.014031 4.441144
v 1.854990 -1.352197 4.702427
v 1.831919 -1.356416 4.746305
v 1.823923 -1.326669 4.786286
v 2.501856 -1.624482 5.111921
v 0.130541 0.680533 7.695398
v 0.177698 0.761289 7.703506
v 0.230173 0.748785 7.769734
v 0.179636 0.656362 7.678768
v 0.424181 0.949613 7.911360
v 0.230173 0.748785 7.769734
v 0.177698 0.761289 7.703506
v 0.230173 0.748785 7.769734
v 0.424181 0.949613 7.911360
v 0.230173 0.748785 7.769734
v 0.130541 0.680533 7.695398
v 0.179636 0.656362 7.678768
v -0.193212 0.064017 7.098464
v -0.161657 0.068724 7.037292
v -0.101614 0.015074 7.100952
v -0.175962 0.035445 7.166399
v -0.122854 0.280074 7.353938
v -0.193212 0.064017 7.098464
v -0.122854 0.280074 7.353938
v 0.424181 0.949613 7.911360
v 0.179636 0.656362 7.678768
v 0.177698 0.761289 7.703506
v -0.221373 -0.043457 3.801852
v -0.189489 -0.108444 3.849292
v -0.108847 -0.144760 3.824396
v -0.189489 -0.108444 3.849292
v -0.277967 0.115760 5.535995
v -0.223204 0.130751 5.597754
v -1.221182 -1.332666 6.918193
v 1.189623 -0.972862 4.496492
v 1.886316 -1.290048 4.701931
v 1.854479 -1.285928 4.771086
v 1.231920 -0.916466 4.475449
v 1.275988 -0.922158 4.379716
v 0.541102 -0.440239 3.853647
v 0.491663 -0.432045 3.966111
v 0.435923 -0.506394 3.993846
v 1.189623 -0.972862 4.496492
v 1.823923 -1.326669 4.786286
v 2.501856 -1.624482 5.111921
v 0.129603 -0.319130 3.727092
v -0.168882 -0.133484 3.359123
v -0.168882 -0.133484 3.359123
v 0.058474 0.099702 0.217050
v 0.122385 -0.253051 -0.018430
v 0.166422 0.174805 -0.018430
v -0.232641 -0.302825 0.217050
v -0.270162 -0.428847 -0.018430
v -0.465040 -0.134742 0.217050
v -0.618688 -0.176788 -0.018430
v -0.495413 0.193765 -0.018430
v -0.400976 0.125459 0.217050
v -0.173925 0.267785 0.217050
v -0.182104 0.426865 -0.018430
v 0.166422 0.174805 -0.018430
v 0.058474 0.099702 0.217050
v -0.314016 -0.054451 1.709230
v -0.109083 -0.299080 2.828550
v 0.017038 0.063371 0.452540
v -0.072386 0.057464 2.828550
v 0.072825 -0.047562 2.828550
v -0.017416 -0.037361 3.522590
v -0.118055 0.035431 3.623830
v 0.016871 -0.062157 3.623830
v -0.039587 -0.007508 4.496350
v -0.151380 0.073349 4.496350
v -0.277296 0.016968 4.496350
v -0.291418 -0.120278 4.496350
v -0.290335 0.009154 5.229150
v -0.278463 0.124480 5.229150
v -0.172659 0.171866 5.229150
v -0.078710 0.103926 5.229150
v -0.093626 0.097251 6.401340
v -0.174330 0.155616 6.401340
v -0.265219 0.114905 6.401340
v -0.275427 0.015837 6.401340
v -0.122488 0.091346 7.231310
v -0.063536 0.048705 7.231310
v -0.191458 0.007773 7.573517
v -0.194715 -0.042535 6.401340
v -0.103819 -0.001825 6.401340
v -0.063536 0.048705 7.231310
v -0.093626 0.097251 6.401340
v -0.078710 0.103926 5.229150
v -0.142752 0.004798 7.228112
v 1.624148 2.154600 10.395257
v -0.759458 -0.014804 13.194530
v -2.525717 -2.163821 10.028853
v -0.111990 -0.231842 4.044748
v 0.903139 -0.707224 8.873484
v -1.781637 3.421873 9.841630
v -2.796461 3.897246 5.014949
v 0.338427 0.592925 4.494514
v 1.413401 4.341178 3.801153
v 2.875315 4.608642 7.525913
v 1.800852 0.861944 8.219168
v 0.195780 -0.250313 3.752349
v 2.170359 -2.937851 2.048336
v 4.048342 -3.601282 5.275311
v 2.074656 -0.914903 6.978734
v -0.260206 -0.046623 4.153972
v -1.009451 1.161940 7.717118
v -0.667654 -2.480853 9.022319
v 0.081286 -3.689073 5.460720
vt 0.499512 1.000100
vt 0.500000 0.500977
vt 0.003206 0.501465
vt 0.003206 1.000100
vt 0.499512 1.000100
vt 0.500000 0.500977
vt 0.003206 0.501465
vt 0.003206 1.000100
vt 0.499512 1.000100
vt 0.500000 0.500977
vt 0.003206 0.501465
vt 0.003206 1.000100
vt 0.499512 1.000100
vt 0.500000 0.500977
vt 0.003206 0.501465
vt 0.003206 1.000100
vt 0.499512 0.498535
vt 0.500000 0.000000
vt 0.003206 0.000000
vt 0.003206 0.498535
vt 0.499512 1.000100
vt 0.003206 0.501465
vt 0.003206 1.000100
vt 0.500000 0.500977
vt 0.499512 1.000100
vt 0.003206 0.501465
vt 0.003206 1.000100
vt 0.500000 0.500977
vt 0.499512 1.000100
vt 0.003206 0.501465
vt 0.003206 1.000100
vt 0.500000 0.500977
vt 0.499512 1.000100
vt 0.003206 0.501465
vt 0.003206 1.000100
vt 0.500000 0.500977
vt 0.499512 1.000100
vt 0.003206 0.501465
vt 0.003206 1.000100
vt 0.500000 0.500977
vt 0.499512 1.000100
vt 0.003206 0.501465
vt 0.003206 1.000100
vt 0.500000 0.500977
vt 0.499512 1.000100
vt 0.003206 0.501465
vt 0.003206 1.000100
vt 0.500000 0.500977
vt 0.499512 1.000100
vt 0.003206 0.501465
vt 0.003206 1.000100
vt 0.500000 0.500977
vt 0.499512 1.000100
vt 0.003206 0.501465
vt 0.003206 1.000100
vt 0.500000 0.500977
vt 0.499512 1.000100
vt 0.003206 0.501465
vt 0.003206 1.000100
vt 0.500000 0.500977
vt 0.499512 1.000100
vt 0.003206 0.501465
vt 0.003206 1.000100
vt 0.500000 0.500977
vt 0.499512 1.000100
vt 0.003206 0.501465
vt 0.003206 1.000100
vt 0.500000 0.500977
vt 0.499512 0.498535
vt 0.500000 0.000000
vt 0.003206 0.000000
vt 0.003206 0.498535
vt 0.499512 0.498535
vt 0.500000 0.000000
vt 0.003206 0.000000
vt 0.003206 0.498535
vt 0.499512 0.498535
vt 0.500000 0.000000
vt 0.003206 0.000000
vt 0.003206 0.498535
vt 0.499512 0.498535
vt 0.500000 0.000000
vt 0.003206 0.000000
vt 0.003206 0.498535
vt 0.499512 0.498535
vt 0.500000 0.000000
vt 0.003206 0.000000
vt 0.003206 0.498535
vt 0.499512 0.498535
vt 0.500000 0.000000
vt 0.003206 0.000000
vt 0.003206 0.498535
vt 0.499512 0.498535
vt 0.500000 0.000000
vt 0.003206 0.000000
vt 0.003206 0.498535
vt 0.499512 1.000100
vt 0.003206 0.501465
vt 0.003206 1.000100
vt 0.500000 0.500977
vt 0.499512 1.000100
vt 0.003206 0.501465
vt 0.003206 1.000100
vt 0.500000 0.500977
vt 0.499512 0.998155
vt 0.500000 0.499023
vt 0.003206 0.499512
vt 0.003206 0.998155
vt 0.499512 0.498535
vt 0.500000 0.000000
vt 0.003206 0.000000
vt 0.003206 0.498535
vt 0.007996 4.650391
vt 0.605957 4.933594
vt 0.293213 5.054688
vt 0.007996 4.083984
vt 0.435791 3.792969
vt 0.435791 3.792969
vt 0.634277 4.929688
vt 0.007996 3.648438
vt 0.007996 3.212891
vt 0.906250 4.083984
vt 0.914551 3.404297
vt 0.732422 4.949219
vt 1.378906 4.142578
vt 1.375000 3.525391
vt 0.899414 4.876953
vt 1.722656 3.642578
vt 1.088867 5.046875
vt 1.722656 3.642578
vt 1.662109 4.875000
vt 1.425781 5.164062
vt 1.980469 4.650391
vt 1.762695 5.039062
vt 1.980469 4.083984
vt 1.662109 4.875000
vt 1.980469 3.648438
vt 1.980469 3.212891
vt 0.730957 4.947266
vt 0.906250 4.083984
vt 0.899414 4.876953
vt 0.597656 1.132202
vt 0.369141 1.132935
vt 0.635742 0.772583
vt 0.358887 0.772583
vt 0.478027 2.200195
vt 0.000945 1.694824
vt 0.126465 1.694336
vt 0.144897 1.413086
vt 0.000945 1.413818
vt 0.363281 1.409424
vt 0.181152 1.137817
vt 0.000945 1.138672
vt 0.352051 1.691895
vt 0.478027 2.200195
vt 0.570312 1.691406
vt 1.348633 1.222168
vt 1.214844 1.222656
vt 1.340820 0.970291
vt 1.308594 1.416016
vt 1.193359 1.416260
vt 1.486328 1.226929
vt 1.517578 1.419434
vt 1.592773 1.226685
vt 1.524414 1.616211
vt 1.315430 1.613770
vt 1.186523 1.613770
vt 1.313477 1.970215
vt 1.106445 1.615723
vt 1.025391 1.616211
vt 1.117188 1.418945
vt 1.103516 1.226074
vt 1.032227 1.419434
vt 1.621094 1.616211
vt 1.627930 1.419434
vt 1.699219 1.226074
vt 1.712891 1.418945
vt 1.666016 0.970291
vt 1.560547 0.970291
vt 1.472656 0.970291
vt 0.669434 -0.160156
vt 0.669434 0.287109
vt 0.336670 -0.160156
vt 0.336670 0.287109
vt 0.003983 0.287109
vt 0.669434 0.685303
vt 0.669434 0.939117
vt 0.336670 0.939117
vt 1.001953 0.685303
vt 0.669434 0.976151
vt 1.001953 0.976151
vt 1.001953 0.939117
vt 1.334961 0.939117
vt 1.334961 0.976151
vt 1.666992 0.939117
vt 1.334961 1.278809
vt 1.666992 0.976151
vt 1.666992 1.278809
vt 1.334961 1.539551
vt 2.000000 0.976227
vt 1.666992 1.539551
vt 2.000000 1.279053
vt 1.334961 -0.160156
vt 1.334961 0.287109
vt 1.001953 -0.160156
vt 1.666992 -0.160156
vt 1.666992 0.287109
vt 1.666992 -0.244141
vt 2.000000 -0.160156
vt 2.000000 0.287109
vt 2.000000 0.685303
vt 1.666992 0.685303
vt 2.000000 0.939117
vt 0.897949 -0.372070
vt 0.897949 -0.113281
vt 0.663574 -0.242188
vt 0.673828 -0.501953
vt 0.449707 -0.372070
vt 0.449707 -0.113281
vt 0.897949 -0.113281
vt 0.673828 -0.419922
vt 0.663574 -0.242188
vt 0.449707 -0.113281
vt 2.000000 2.374023
vt 1.666992 2.374023
vt 1.675781 2.218750
vt 1.329102 2.218750
vt 1.334961 2.374023
vt 1.001953 2.374023
vt 0.669434 2.374023
vt 1.006836 2.218750
vt 0.666504 2.218750
vt 0.336670 2.374023
vt 1.009766 1.138672
vt 0.823730 1.414062
vt 0.830078 1.139038
vt 0.559082 1.408936
vt 1.011719 1.413818
vt 0.835938 1.695312
vt 0.999512 1.694824
vt 0.585938 0.724365
vt 0.789062 0.598877
vt 0.789062 0.892090
vt 0.585938 0.886658
vt 0.585938 0.598877
vt 0.484863 0.723389
vt 0.384033 0.887207
vt 0.384033 0.722168
vt 0.230469 0.891052
vt 0.384033 0.598877
vt 0.484863 0.598877
vt 0.230469 0.598877
vt 0.384033 1.175415
vt 0.230469 1.183105
vt 0.009087 0.891785
vt 0.384033 1.725098
vt 0.009087 1.184570
vt 0.230469 1.730957
vt 0.384033 2.252930
vt 0.230469 2.257812
vt 0.009087 2.258789
vt 0.532227 2.882812
vt 1.811523 4.974609
vt 1.521484 5.136719
vt 1.597656 5.433594
vt 0.666016 5.070312
vt 0.942383 6.285156
vt 0.530273 5.500000
vt 1.449219 5.226562
vt 1.615234 5.437500
vt 1.431641 6.390625
vt 0.401855 5.578125
vt 0.320068 5.035156
vt 0.705566 4.921875
vt 1.936523 2.360352
vt 1.384766 2.348633
vt 0.911621 2.348633
vt 0.440918 2.348633
vt 0.441162 3.212891
vt 0.000000 2.356445
vt 0.441162 3.212891
vt 1.186523 6.335938
vt 0.662109 5.046875
vt 1.093750 5.042969
vt 0.859375 0.772583
vt 1.007812 0.772583
vt 0.175659 0.772583
vt 0.000945 0.772583
vt 1.177734 0.970291
vt 1.069336 0.970291
vt 1.909180 1.970215
vt 0.009087 1.731934
vt 0.585938 2.251953
vt 0.789062 2.258789
vt 0.789062 1.732422
vt 0.585938 1.724609
vt 0.585938 1.174316
vt 0.789062 1.185181
vt 1.003906 1.184570
vt 1.003906 1.731934
vt 1.003906 2.258789
vt 0.532227 2.882812
vt 1.003906 0.891785
vt 1.003906 0.598877
vt 0.009087 0.598877
vt 2.000000 -0.244141
vt 1.666992 -0.328125
vt 2.000000 -0.328125
vt 1.334961 -0.244141
vt 1.334961 -0.328125
vt 1.001953 -0.244141
vt 1.001953 -0.328125
vt 0.669434 -0.328125
vt 0.669434 -0.244141
vt 0.336670 -0.244141
vt 0.336670 -0.328125
vt 0.003983 -0.328125
vt 0.003983 -0.244141
vt 1.001953 0.287109
vt 1.334961 0.685303
vt 0.003983 -0.160156
vt 0.336670 0.685303
vt 0.003983 0.685303
vt 0.003983 0.939117
vt 0.336670 0.976151
vt 0.003983 0.976227
vt 0.003983 1.279053
vt 0.336670 1.278809
vt 0.669434 1.278809
vt 1.001953 1.278809
vt 1.001953 1.539551
vt 0.669434 1.539551
vt 0.336670 1.539551
vt 0.003983 1.539551
vt 0.003983 1.957031
vt 0.336670 1.957031
vt 0.669434 1.957031
vt 1.001953 1.957031
vt 0.342041 2.218750
vt 0.003983 2.218750
vt 0.003983 2.374023
vt 1.334961 1.957031
vt 1.666992 1.957031
vt 2.000000 2.218750
vt 2.000000 1.957031
vt 2.000000 1.539551
vt 0.499512 1.001450
vt 0.500000 0.500977
vt 0.001124 0.501465
vt -0.000957 1.000100
vt 0.499512 1.001450
vt 0.500000 0.500977
vt 0.001124 0.501465
vt -0.000957 1.000100
vt 0.499512 1.001450
vt 0.500000 0.500977
vt 0.001124 0.501465
vt -0.000957 1.000100
vt 0.499512 1.001450
vt 0.500000 0.500977
vt 0.001124 0.501465
vt -0.000957 1.000100
vt 0.499512 1.001450
vt 0.500000 0.500977
vt 0.001124 0.501465
vt -0.000957 1.000100
vn 0.7457 -0.6578 0.1056
vn 0.7458 -0.6578 0.1056
vn 0.7458 -0.6578 0.1057
vn 0.7457 -0.6578 0.1057
vn -0.0080 -0.9829 0.1837
vn -0.0080 -0.9829 0.1838
vn -0.0080 -0.9830 0.1837
vn -0.0079 -0.9829 0.1837
vn -0.0079 -0.9830 0.1837
vn -0.8429 -0.3807 0.3802
vn -0.8429 -0.3807 0.3803
vn -0.1377 -0.7192 0.6810
vn -0.1376 -0.7192 0.6810
vn -0.1376 -0.7192 0.6811
vn 0.4540 -0.6067 0.6526
vn 0.4540 -0.6066 0.6526
vn 0.4541 -0.6066 0.6526
vn 0.4541 -0.6067 0.6525
vn 0.4541 -0.6066 0.6525
vn 0.5001 0.5333 0.6823
vn 0.5001 0.5333 0.6822
vn 0.2701 0.7723 0.5750
vn 0.2702 0.7723 0.5750
vn 0.2701 0.7723 0.5749
vn -0.2776 0.7672 0.5782
vn -0.2159 0.3409 0.9150
vn -0.2158 0.3410 0.9150
vn -0.2160 0.3409 0.9149
vn -0.2160 0.3410 0.9149
vn -0.2777 0.7672 0.5782
vn -0.2777 0.7672 0.5781
vn -0.2777 0.7671 0.5782
vn 0.5760 0.5965 0.5589
vn 0.5760 0.5965 0.5590
vn -0.4540 -0.1413 0.8797
vn -0.4540 -0.1412 0.8797
vn -0.9216 0.1439 0.3605
vn -0.9216 0.1439 0.3604
vn -0.9216 0.1438 0.3604
vn -0.0177 -0.2669 0.9636
vn -0.0177 -0.2670 0.9635
vn -0.0178 -0.2669 0.9636
vn -0.0234 0.1232 0.9921
vn -0.0233 0.1231 0.9921
vn -0.0233 0.1232 0.9921
vn -0.8079 0.1844 0.5597
vn 0.6624 -0.6966 0.2758
vn -0.7153 -0.0804 0.6942
vn -0.7898 0.0803 0.6081
vn 0.0068 -0.6663 0.7456
vn -0.8079 0.1846 0.5597
vn 0.0070 -0.6664 0.7456
vn 0.6624 -0.6966 0.2757
vn -0.8226 0.0998 0.5598
vn -0.9325 -0.1121 0.3433
vn 0.7838 -0.6135 0.0960
vn 0.0069 -0.6664 0.7455
vn 0.9571 -0.2789 -0.0787
vn 0.3610 0.4806 -0.7992
vn 0.2645 0.5377 -0.8006
vn 0.6849 0.1824 -0.7054
vn -0.4726 0.6623 -0.5814
vn -0.2625 0.8547 -0.4479
vn -0.4726 0.6625 -0.5812
vn -0.2398 0.8526 -0.4643
vn 0.3610 0.4809 -0.7990
vn -0.2618 0.8546 -0.4485
vn -0.7153 -0.0803 0.6942
vn -0.2403 0.8526 -0.4640
vn -0.4726 0.6624 -0.5813
vn -0.7898 0.0798 0.6082
vn -0.8080 0.1844 0.5596
vn -0.8227 0.0997 0.5597
vn -0.9326 -0.1121 0.3431
vn 0.6624 -0.6965 0.2758
vn 0.7840 -0.6133 0.0959
vn -0.0663 0.7014 -0.7097
vn 0.8352 -0.0760 -0.5446
vn -0.0577 0.6237 -0.7795
vn 0.8674 -0.2001 -0.4557
vn -0.1144 0.9525 -0.2823
vn -0.3500 -0.5379 0.7669
vn 0.5866 -0.7243 0.3624
vn 0.5646 -0.7781 0.2754
vn -0.3742 -0.6043 0.7035
vn 0.8791 -0.0413 -0.4748
vn 0.5446 -0.7297 0.4134
vn -0.3802 -0.4396 0.8137
vn 0.8984 -0.0555 -0.4357
vn -0.1143 0.9525 -0.2822
vn -0.1131 0.7999 -0.5893
vn 0.0483 -0.7062 -0.7063
vn -0.8280 0.0935 -0.5529
vn 0.0632 -0.6452 -0.7614
vn 0.0510 -0.8155 -0.5766
vn -0.8792 0.0413 -0.4747
vn 0.8368 -0.5178 0.1777
vn 0.8751 -0.4395 0.2026
vn 0.3722 0.4453 0.8144
vn 0.8742 -0.4318 0.2220
vn 0.1131 -0.7999 -0.5894
vn -0.8984 0.0555 -0.4357
vn 0.1143 -0.9525 -0.2821
vn -0.5866 0.7243 0.3623
vn 0.3500 0.5379 0.7669
vn -0.5646 0.7781 0.2755
vn -0.5352 0.7457 0.3968
vn 0.3742 0.6042 0.7034
vn 0.3500 0.5377 0.7671
vn 0.3742 0.6043 0.7035
vn -0.5646 0.7780 0.2755
vn -0.4697 0.6956 0.5436
vn 0.3571 0.3336 0.8725
vn 0.8372 -0.5042 0.2116
vn -0.8132 0.5758 0.0847
vn -0.7991 0.5968 0.0724
vn 0.0971 0.9933 0.0633
vn 0.0945 0.9942 0.0508
vn 0.8941 0.4478 0.0062
vn -0.7986 0.6013 0.0267
vn -0.7758 0.6287 -0.0537
vn 0.0168 0.9993 0.0345
vn -0.9002 -0.4301 -0.0679
vn -0.7268 0.6868 0.0112
vn -0.9113 -0.3939 0.1195
vn -0.9197 -0.3832 -0.0851
vn -0.1147 -0.9932 -0.0177
vn -0.1431 -0.9812 0.1298
vn 0.8397 -0.5412 0.0444
vn -0.1420 -0.9791 0.1458
vn 0.8029 -0.5919 0.0710
vn 0.8016 -0.5843 0.1268
vn -0.1074 -0.9900 0.0911
vn 0.9333 0.3590 0.0042
vn 0.8173 -0.5720 0.0702
vn 0.9183 0.3956 0.0173
vn -0.1392 -0.9841 0.1103
vn -0.1311 -0.9914 0.0000
vn -0.9045 -0.4102 0.1168
vn 0.8004 -0.5929 0.0884
vn 0.8197 -0.5725 -0.0176
vn 0.7696 -0.5566 0.3131
vn 0.8983 0.4357 0.0566
vn 0.9281 0.3714 0.0269
vn 0.8226 -0.5672 -0.0408
vn 0.9040 0.4210 0.0743
vn 0.8368 0.3867 0.3876
vn 0.0186 0.9797 0.1998
vn -0.0000 0.0000 1.0000
vn 0.7382 -0.6160 0.2750
vn -0.1921 -0.9809 -0.0311
vn -0.9013 -0.3879 -0.1928
vn -0.8503 0.5171 -0.0982
vn 0.8370 0.3862 0.3877
vn 0.7380 -0.6163 0.2750
vn 0.8202 -0.5716 0.0236
vn -0.0653 -0.9978 -0.0089
vn -0.1922 -0.9809 -0.0310
vn -0.8503 0.5171 -0.0983
vn -0.9047 -0.4261 0.0024
vn -0.7985 0.5984 0.0657
vn 0.0186 0.9796 0.1999
vn -0.3802 -0.4397 0.8137
vn -0.8750 0.4396 0.2027
vn -0.8499 0.5021 0.1597
vn -0.0510 0.8155 -0.5766
vn -0.3742 -0.6042 0.7035
vn -0.8743 0.4317 0.2220
vn -0.3499 -0.5380 0.7669
vn 0.7034 0.6931 -0.1575
vn -0.0558 0.8739 0.4829
vn -0.0022 0.8682 0.4963
vn 0.7809 0.3704 -0.5030
vn 0.8704 0.3092 -0.3832
vn 0.6829 -0.4741 -0.5559
vn 0.3075 -0.7043 -0.6398
vn -0.1360 -0.9601 -0.2443
vn -0.6775 -0.6824 0.2743
vn 0.1924 -0.9029 -0.3843
vn 0.6940 -0.4694 -0.5460
vn -0.7523 -0.5389 0.3791
vn 0.2198 -0.6169 -0.7557
vn -0.5528 -0.8292 0.0830
vn -0.6886 0.0826 0.7204
vn 0.1228 -0.6257 -0.7703
vn -0.6051 -0.0504 0.7946
vn -0.5350 -0.8413 0.0770
vn 0.1094 -0.6204 -0.7766
vn -0.4760 -0.8758 0.0800
vn -0.4862 -0.1693 0.8573
vn 0.8248 0.5337 -0.1865
vn -0.7152 -0.0805 0.6943
vn -0.2625 0.8546 -0.4481
vn -0.2405 0.8527 -0.4638
vn -0.3681 -0.2740 0.8885
vn 0.6624 -0.6966 0.2756
vn 0.1839 0.9598 -0.2120
vn -0.3680 -0.2741 0.8885
vn -0.2626 0.8547 -0.4479
vn -0.3679 -0.2741 0.8885
vn 0.1839 0.9597 -0.2123
vn -0.7152 -0.0803 0.6942
vn -0.9263 0.3444 -0.1527
vn 0.4049 0.5365 -0.7404
vn 0.9873 -0.1062 -0.1182
vn -0.2184 -0.5614 0.7982
vn -0.1177 -0.6362 0.7625
vn -0.9326 -0.1124 0.3431
vn -0.9264 0.3442 -0.1528
vn -0.2185 -0.5613 0.7983
vn -0.1177 -0.6361 0.7626
vn 0.1840 0.9597 -0.2123
vn 0.6849 0.1823 -0.7055
vn -0.8609 0.4719 0.1900
vn -0.3435 -0.3468 0.8727
vn 0.4925 -0.6681 0.5577
vn -0.3436 -0.3468 0.8727
vn -0.1144 0.9525 -0.2822
vn -0.8481 0.2204 -0.4818
vn -0.4696 0.6957 0.5436
vn 0.1142 -0.9526 -0.2821
vn -0.5530 -0.1158 0.8251
vn 0.6322 0.5442 -0.5516
vn 0.2179 0.8264 0.5192
vn 0.1878 0.8200 0.5407
vn 0.6751 0.5432 -0.4992
vn 0.7058 0.5046 -0.4972
vn 0.1724 0.8526 0.4932
vn -0.4863 -0.1694 0.8572
vn 0.8249 0.5337 -0.1864
vn -0.6887 0.0826 0.7204
vn -0.7239 0.1531 0.6727
vn -0.7240 0.1530 0.6726
vn 0.8437 0.3937 0.3649
vn 0.7395 -0.5348 0.4088
vn 0.7917 0.3969 0.4645
vn -0.1097 -0.9246 0.3649
vn -0.1288 -0.8762 0.4645
vn -0.8303 -0.3273 0.4511
vn -0.7917 -0.2855 0.5401
vn -0.7094 0.5130 0.4834
vn -0.7435 0.5379 0.3974
vn 0.0509 0.8910 0.4511
vn 0.0232 0.8412 0.5403
vn 0.7917 0.3968 0.4645
vn 0.8437 0.3938 0.3649
vn -0.9207 -0.3876 0.0461
vn -0.0596 -0.9940 -0.0917
vn 0.1180 0.9907 0.0682
vn 0.0966 0.9951 -0.0189
vn 0.9333 0.3590 0.0043
vn 0.9182 0.3957 0.0173
vn 0.0844 0.9932 -0.0800
vn -0.7644 0.6427 -0.0511
vn -0.9056 -0.4172 0.0762
vn -0.9205 -0.3890 0.0362
vn -0.8004 0.5987 -0.0303
vn 0.0964 0.9943 -0.0463
vn 0.9036 0.4284 -0.0011
vn 0.9094 0.4160 0.0061
vn 0.0942 0.9950 0.0346
vn -0.8094 0.5852 0.0485
vn -0.9153 -0.4012 0.0357
vn 0.1382 0.9853 0.1005
vn 0.9185 0.3891 0.0698
vn 0.8369 0.3865 0.3877
vn -0.1103 -0.9939 0.0073
vn 0.8102 -0.5861 -0.0084
vn 0.9186 0.3890 0.0699
vn 0.9094 0.4158 0.0061
vn 0.7161 -0.6943 0.0717
vn -0.8198 -0.5605 0.1172
vn 0.8907 -0.3159 -0.3269
vn -0.6903 -0.6740 0.2631
vn 0.9768 0.1473 0.1554
usemtl cm059_h_tree018.004
s 1
f 1/1/1 2/2/1 3/3/1
f 4/4/2 1/1/1 3/3/1
f 5/5/3 6/6/3 7/7/3
f 8/8/4 5/5/3 7/7/3
f 9/9/5 10/10/6 11/11/6
f 12/12/7 9/9/5 11/11/6
f 13/13/8 14/14/8 15/15/9
f 16/16/7 13/13/8 15/15/9
f 17/17/10 18/18/11 19/19/10
f 20/20/10 17/17/10 19/19/10
f 21/21/12 22/22/13 23/23/12
f 21/21/12 24/24/12 22/22/13
f 25/25/14 26/26/12 27/27/14
f 25/25/14 28/28/12 26/26/12
f 29/29/15 30/30/16 31/31/15
f 29/29/15 32/32/17 30/30/16
f 33/33/17 34/34/18 35/35/19
f 33/33/17 36/36/17 34/34/18
f 37/37/20 38/38/21 39/39/20
f 37/37/20 40/40/21 38/38/21
f 41/41/20 42/42/20 43/43/20
f 41/41/20 44/44/20 42/42/20
f 45/45/22 46/46/22 47/47/23
f 45/45/22 48/48/22 46/46/22
f 49/49/22 50/50/22 51/51/24
f 49/49/22 52/52/22 50/50/22
f 53/53/25 54/54/25 55/55/25
f 53/53/25 56/56/25 54/54/25
f 57/57/26 58/58/27 59/59/26
f 57/57/26 60/60/27 58/58/27
f 61/61/28 62/62/28 63/63/29
f 61/61/28 64/64/28 62/62/28
f 65/65/30 66/66/31 67/67/30
f 65/65/30 68/68/32 66/66/31
f 69/69/33 70/70/33 71/71/33
f 72/72/33 69/69/33 71/71/33
f 73/73/33 74/74/34 75/75/33
f 76/76/33 73/73/33 75/75/33
f 77/77/35 78/78/36 79/79/36
f 80/80/35 77/77/35 79/79/36
f 81/81/35 82/82/35 83/83/35
f 84/84/35 81/81/35 83/83/35
f 85/85/37 86/86/38 87/87/38
f 88/88/37 85/85/37 87/87/38
f 89/89/39 90/90/38 91/91/38
f 92/92/39 89/89/39 91/91/38
f 93/93/10 94/94/10 95/95/10
f 96/96/10 93/93/10 95/95/10
f 97/97/40 98/98/41 99/99/40
f 97/97/40 100/100/41 98/98/41
f 101/101/42 102/102/40 103/103/42
f 101/101/42 104/104/40 102/102/40
f 105/105/43 106/106/44 107/107/44
f 108/108/45 105/105/43 107/107/44
f 109/109/45 110/110/45 111/111/45
f 112/112/45 109/109/45 111/111/45
usemtl cm004_bg_tree002_cmem.004
f 113/113/46 114/114/47 115/115/48
f 116/116/49 117/117/50 113/113/51
f 118/118/52 119/119/53 113/113/46
f 120/120/54 117/117/50 116/116/49
f 120/120/54 121/121/55 117/117/50
f 122/122/56 118/118/57 123/123/58
f 124/124/47 118/118/57 122/122/56
f 125/125/59 122/122/56 123/123/58
f 126/126/60 125/125/59 123/123/58
f 127/127/61 122/122/56 125/125/59
f 128/128/62 125/125/59 126/126/60
f 125/125/59 129/129/63 127/127/61
f 130/130/64 131/131/65 125/125/66
f 132/132/67 125/125/66 131/131/65
f 133/133/46 134/134/68 131/131/69
f 130/130/70 135/135/71 133/133/72
f 136/136/69 130/130/70 133/133/72
f 137/137/73 135/135/71 130/130/70
f 138/138/74 137/137/73 130/130/70
f 139/139/75 140/140/76 141/141/61
f 142/142/77 143/143/78 144/144/79
f 145/145/80 144/144/79 143/143/78
f 146/146/81 147/147/82 148/148/83
f 149/149/84 148/148/83 147/147/82
f 150/150/85 149/149/84 147/147/82
f 149/149/84 151/151/86 148/148/83
f 152/152/87 151/151/86 149/149/84
f 150/150/85 152/152/87 149/149/84
f 150/150/85 153/153/88 152/152/87
f 148/148/83 151/151/86 154/154/89
f 155/155/90 148/148/83 154/154/89
f 156/156/91 155/155/90 154/154/89
f 157/157/92 158/158/93 159/159/94
f 160/160/95 158/158/93 157/157/92
f 160/160/95 161/161/96 158/158/93
f 162/162/97 160/160/95 157/157/92
f 163/163/98 160/160/95 162/162/97
f 164/164/99 163/163/98 162/162/97
f 165/165/100 160/160/95 163/163/98
f 166/166/101 160/160/95 165/165/100
f 167/167/102 160/160/95 166/166/101
f 161/161/96 160/160/95 167/167/102
f 168/168/103 167/167/102 166/166/101
f 169/169/104 167/167/102 168/168/103
f 169/169/104 161/161/96 167/167/102
f 170/170/105 169/169/104 168/168/103
f 170/170/105 171/171/106 169/169/104
f 161/161/96 169/169/104 171/171/106
f 172/172/107 161/161/96 171/171/106
f 170/170/105 173/173/108 171/171/106
f 165/165/100 163/163/98 174/174/109
f 175/175/110 174/174/109 163/163/98
f 164/164/99 175/175/110 163/163/98
f 176/176/107 175/175/110 164/164/99
f 177/177/111 175/175/110 176/176/107
f 178/178/112 176/176/107 164/164/99
f 179/179/113 178/178/112 164/164/99
f 180/180/114 179/179/113 164/164/99
f 181/181/115 182/182/116 183/183/117
f 184/184/118 183/183/117 182/182/116
f 184/184/118 185/185/119 183/183/117
f 186/186/120 184/184/118 182/182/116
f 187/187/121 188/188/122 186/186/120
f 189/189/123 187/187/121 186/186/120
f 190/190/124 188/188/122 187/187/121
f 191/191/125 190/190/124 187/187/121
f 192/192/126 191/191/125 187/187/121
f 189/189/123 192/192/126 187/187/121
f 193/193/127 192/192/126 189/189/123
f 194/194/128 191/191/125 193/193/127
f 195/195/129 194/194/128 193/193/127
f 196/196/130 191/191/125 194/194/128
f 197/197/131 196/196/130 194/194/128
f 195/195/129 197/197/131 194/194/128
f 198/198/132 196/196/130 197/197/131
f 199/199/133 196/196/130 198/198/132
f 200/200/134 198/198/132 197/197/131
f 201/201/135 199/199/133 198/198/132
f 202/202/136 201/201/135 198/198/132
f 200/200/134 202/202/136 198/198/132
f 203/203/137 204/204/138 205/205/139
f 206/206/140 204/204/138 203/203/137
f 207/207/141 204/204/138 206/206/140
f 208/208/142 206/206/140 203/203/137
f 209/209/143 206/206/140 208/208/142
f 209/209/143 207/207/141 206/206/140
f 210/210/119 207/207/141 209/209/143
f 211/211/144 207/207/141 210/210/119
f 212/212/145 207/207/141 211/211/144
f 213/213/146 212/212/145 211/211/144
f 214/214/147 215/215/148 216/216/149
f 217/217/150 214/214/147 216/216/149
f 218/218/151 217/217/150 216/216/149
f 219/219/152 218/218/151 216/216/149
f 220/220/148 221/221/153 222/222/149
f 223/223/152 222/222/149 221/221/153
f 224/224/154 225/225/155 226/226/156
f 227/227/157 226/226/156 225/225/155
f 228/228/158 227/227/157 225/225/155
f 229/229/152 230/230/159 231/231/160
f 232/232/161 231/231/160 230/230/159
f 233/233/162 232/232/161 230/230/159
f 234/234/163 235/235/164 236/236/165
f 237/237/166 236/236/165 235/235/164
f 238/238/167 235/235/164 234/234/163
f 239/239/168 237/237/166 235/235/164
f 240/240/169 239/239/168 235/235/164
f 238/238/167 240/240/169 235/235/164
f 241/241/170 242/242/171 243/243/172
f 244/244/173 241/241/170 243/243/172
f 245/245/174 242/242/171 241/241/170
f 246/246/175 241/241/170 244/244/173
f 241/241/170 246/246/175 245/245/174
f 247/247/176 246/246/175 244/244/173
f 248/248/177 246/246/175 247/247/176
f 249/249/178 248/248/177 247/247/176
f 250/250/179 246/246/175 248/248/177
f 250/250/179 251/251/180 246/246/175
f 245/245/174 246/246/175 251/251/180
f 248/248/177 252/252/181 250/250/179
f 249/249/178 252/252/181 248/248/177
f 253/253/182 254/254/183 249/249/178
f 255/255/184 249/249/178 254/254/183
f 256/256/185 254/254/183 253/253/182
f 257/257/186 255/255/184 254/254/183
f 258/258/187 254/254/183 256/256/185
f 254/254/183 258/258/187 257/257/186
f 259/259/188 260/260/189 258/258/187
f 261/261/190 258/258/187 260/260/189
f 262/262/191 261/261/190 260/260/189
f 259/259/188 262/262/191 260/260/189
f 263/263/192 264/264/193 131/131/194
f 265/265/195 264/264/193 263/263/192
f 266/266/196 267/267/197 268/268/198
f 269/269/199 270/270/200 271/271/201
f 272/272/195 273/273/202 274/274/53
f 130/130/70 275/275/203 138/138/74
f 126/126/60 275/275/203 130/130/70
f 276/276/204 275/275/203 126/126/60
f 123/123/58 276/276/204 126/126/60
f 277/277/205 276/276/204 123/123/58
f 278/278/206 277/277/205 123/123/58
f 279/279/207 278/278/206 123/123/58
f 118/118/57 279/279/207 123/123/58
f 118/118/57 121/121/208 279/279/207
f 280/280/209 279/279/207 121/121/208
f 278/278/210 281/281/211 280/280/203
f 282/282/212 283/283/53 127/127/213
f 284/284/193 282/282/212 127/127/213
f 156/156/91 239/239/168 155/155/90
f 156/156/91 237/237/166 239/239/168
f 154/154/89 237/237/166 156/156/91
f 151/151/86 237/237/166 154/154/89
f 143/143/78 237/237/166 151/151/86
f 152/152/87 143/143/78 151/151/86
f 142/142/77 237/237/166 143/143/78
f 236/236/165 237/237/166 142/142/77
f 144/144/79 236/236/165 142/142/77
f 144/144/79 285/285/214 236/236/165
f 234/234/163 236/236/165 285/285/214
f 286/286/215 234/234/163 285/285/214
f 152/152/87 145/145/80 143/143/78
f 152/152/87 287/287/216 145/145/80
f 153/153/88 287/287/216 152/152/87
f 153/153/88 288/288/217 287/287/216
f 239/239/168 240/240/169 146/146/218
f 157/157/92 159/159/94 162/162/97
f 180/180/114 162/162/97 159/159/94
f 180/180/114 164/164/99 162/162/97
f 158/158/93 289/289/219 159/159/94
f 172/172/107 289/289/219 158/158/93
f 172/172/107 290/290/220 289/289/219
f 161/161/96 172/172/107 158/158/93
f 166/166/101 165/165/100 168/168/103
f 174/174/109 291/291/221 165/165/100
f 292/292/222 258/258/187 261/261/190
f 257/257/186 258/258/187 292/292/222
f 256/256/185 259/259/188 258/258/187
f 256/256/185 293/293/223 259/259/188
f 262/262/191 259/259/188 293/293/223
f 294/294/224 262/262/191 293/293/223
f 295/295/225 294/294/224 293/293/223
f 296/296/226 295/295/225 293/293/223
f 256/256/185 296/296/226 293/293/223
f 253/253/182 296/296/226 256/256/185
f 297/297/227 296/296/226 253/253/182
f 298/298/228 296/296/226 297/297/227
f 295/295/225 296/296/226 298/298/228
f 299/299/186 295/295/225 298/298/228
f 299/299/186 300/300/222 295/295/225
f 294/294/224 295/295/225 300/300/222
f 301/301/229 294/294/224 300/300/222
f 302/302/230 294/294/224 301/301/229
f 303/303/231 299/299/186 298/298/228
f 243/243/172 303/303/231 298/298/228
f 297/297/227 243/243/172 298/298/228
f 304/304/232 303/303/231 243/243/172
f 242/242/171 304/304/232 243/243/172
f 297/297/227 244/244/173 243/243/172
f 247/247/176 244/244/173 297/297/227
f 253/253/182 247/247/176 297/297/227
f 253/253/182 249/249/178 247/247/176
f 305/305/233 252/252/181 249/249/178
f 255/255/184 305/305/233 249/249/178
f 306/306/234 209/209/143 208/208/142
f 307/307/235 306/306/234 208/208/142
f 307/307/235 308/308/236 306/306/234
f 309/309/237 307/307/235 208/208/142
f 203/203/137 309/309/237 208/208/142
f 310/310/238 307/307/235 309/309/237
f 205/205/139 309/309/237 203/203/137
f 311/311/239 309/309/237 205/205/139
f 310/310/238 309/309/237 311/311/239
f 312/312/240 310/310/238 311/311/239
f 313/313/241 312/312/240 311/311/239
f 314/314/242 313/313/241 311/311/239
f 205/205/139 314/314/242 311/311/239
f 315/315/243 313/313/241 314/314/242
f 316/316/244 313/313/241 315/315/243
f 317/317/245 316/316/244 315/315/243
f 318/318/246 317/317/245 315/315/243
f 183/183/117 318/318/246 315/315/243
f 314/314/242 183/183/117 315/315/243
f 314/314/242 181/181/115 183/183/117
f 205/205/139 181/181/115 314/314/242
f 205/205/139 319/319/247 181/181/115
f 204/204/138 319/319/247 205/205/139
f 319/319/247 182/182/116 181/181/115
f 186/186/120 182/182/116 319/319/247
f 189/189/123 186/186/120 319/319/247
f 204/204/138 189/189/123 319/319/247
f 320/320/248 189/189/123 204/204/138
f 207/207/141 320/320/248 204/204/138
f 193/193/127 189/189/123 320/320/248
f 212/212/145 320/320/248 207/207/141
f 195/195/129 193/193/127 320/320/248
f 195/195/129 320/320/248 212/212/145
f 213/213/146 195/195/129 212/212/145
f 200/200/134 195/195/129 213/213/146
f 197/197/131 195/195/129 200/200/134
f 183/183/117 321/321/143 318/318/246
f 185/185/119 321/321/143 183/183/117
f 184/184/118 322/322/249 185/185/119
f 323/323/144 185/185/119 322/322/249
f 186/186/120 322/322/249 184/184/118
f 188/188/122 322/322/249 186/186/120
f 324/324/146 322/322/249 188/188/122
f 323/323/144 322/322/249 324/324/146
f 325/325/250 324/324/146 188/188/122
f 190/190/124 325/325/250 188/188/122
f 326/326/251 324/324/146 325/325/250
f 327/327/252 326/326/251 325/325/250
f 328/328/253 327/327/252 325/325/250
f 329/329/254 328/328/253 325/325/250
f 190/190/124 329/329/254 325/325/250
f 330/330/255 329/329/254 190/190/124
f 191/191/125 330/330/255 190/190/124
f 331/331/256 329/329/254 330/330/255
f 332/332/257 329/329/254 331/331/256
f 328/328/253 329/329/254 332/332/257
f 333/333/258 328/328/253 332/332/257
f 334/334/259 328/328/253 333/333/258
f 327/327/252 328/328/253 334/334/259
f 335/335/260 334/334/259 333/333/258
f 336/336/261 335/335/260 333/333/258
f 332/332/257 336/336/261 333/333/258
f 337/337/262 336/336/261 332/332/257
f 331/331/256 337/337/262 332/332/257
f 338/338/263 337/337/262 331/331/256
f 199/199/133 338/338/263 331/331/256
f 330/330/255 199/199/133 331/331/256
f 330/330/255 196/196/130 199/199/133
f 330/330/255 191/191/125 196/196/130
f 192/192/126 193/193/127 191/191/125
f 232/232/161 337/337/262 338/338/263
f 232/232/161 336/336/261 337/337/262
f 232/232/161 339/339/264 336/336/261
f 335/335/260 336/336/261 339/339/264
f 340/340/265 335/335/260 339/339/264
f 341/341/266 340/340/265 339/339/264
f 233/233/162 341/341/266 339/339/264
f 232/232/161 233/233/162 339/339/264
f 338/338/263 231/231/160 232/232/161
f 342/342/267 231/231/160 338/338/263
f 199/199/133 342/342/267 338/338/263
f 201/201/135 342/342/267 199/199/133
f 343/343/268 342/342/267 201/201/135
f 227/227/157 342/342/267 343/343/268
f 227/227/157 231/231/160 342/342/267
f 228/228/158 231/231/160 227/227/157
f 228/228/158 229/229/152 231/231/160
f 343/343/268 226/226/156 227/227/157
f 344/344/269 226/226/156 343/343/268
f 224/224/154 226/226/156 344/344/269
f 345/345/270 344/344/269 343/343/268
f 346/346/259 345/345/270 343/343/268
f 201/201/135 346/346/259 343/343/268
f 201/201/135 202/202/136 346/346/259
usemtl cm059_h_tree017.004
f 347/347/271 348/348/271 349/349/271
f 350/350/271 347/347/271 349/349/271
f 351/351/272 352/352/272 353/353/272
f 354/354/272 351/351/272 353/353/272
f 355/355/273 356/356/273 357/357/273
f 358/358/273 355/355/273 357/357/273
f 359/359/274 360/360/274 361/361/274
f 362/362/274 359/359/274 361/361/274
f 363/363/275 364/364/275 365/365/275
f 366/366/275 363/363/275 365/365/275
